<?xml version="1.0" encoding="UTF-8" standalone="no"?>
<svg
   xmlns:dc="http://purl.org/dc/elements/1.1/"
   xmlns:cc="http://creativecommons.org/ns#"
   xmlns:rdf="http://www.w3.org/1999/02/22-rdf-syntax-ns#"
   xmlns:svg="http://www.w3.org/2000/svg"
   xmlns="http://www.w3.org/2000/svg"
   xmlns:sodipodi="http://sodipodi.sourceforge.net/DTD/sodipodi-0.dtd"
   xmlns:inkscape="http://www.inkscape.org/namespaces/inkscape"
   inkscape:version="1.0 (4035a4fb49, 2020-05-01)"
   sodipodi:docname="ColumnOpen.svg"
   id="svg8"
   version="1.1"
   viewBox="0 0 11.442614 52.349852"
   height="197.85768"
   width="43.247669">
  <defs
     id="defs2">
    <inkscape:path-effect
       lpeversion="0"
       effect="spiro"
       id="path-effect4382"
       is_visible="true" />
  </defs>
  <sodipodi:namedview
     fit-margin-right="5"
     fit-margin-bottom="5"
     fit-margin-left="5"
     fit-margin-top="5"
     inkscape:document-rotation="0"
     inkscape:window-maximized="1"
     inkscape:window-y="-8"
     inkscape:window-x="-8"
     inkscape:window-height="1027"
     inkscape:window-width="1920"
     units="px"
     showgrid="false"
     inkscape:current-layer="layer1"
     inkscape:document-units="px"
     inkscape:cy="16.22134"
     inkscape:cx="25.601315"
     inkscape:zoom="2.0856809"
     inkscape:pageshadow="2"
     inkscape:pageopacity="0.0"
     borderopacity="1.0"
     bordercolor="#666666"
     pagecolor="#ffffff"
     id="base" />
  <metadata
     id="metadata5">
    <rdf:RDF>
      <cc:Work
         rdf:about="">
        <dc:format>image/svg+xml</dc:format>
        <dc:type
           rdf:resource="http://purl.org/dc/dcmitype/StillImage" />
        <dc:title></dc:title>
        <cc:license
           rdf:resource="http://creativecommons.org/licenses/by/4.0/" />
        <dc:creator>
          <cc:Agent>
            <dc:title>KYU</dc:title>
          </cc:Agent>
        </dc:creator>
      </cc:Work>
      <cc:License
         rdf:about="http://creativecommons.org/licenses/by/4.0/">
        <cc:permits
           rdf:resource="http://creativecommons.org/ns#Reproduction" />
        <cc:permits
           rdf:resource="http://creativecommons.org/ns#Distribution" />
        <cc:requires
           rdf:resource="http://creativecommons.org/ns#Notice" />
        <cc:requires
           rdf:resource="http://creativecommons.org/ns#Attribution" />
        <cc:permits
           rdf:resource="http://creativecommons.org/ns#DerivativeWorks" />
      </cc:License>
    </rdf:RDF>
  </metadata>
  <g
     transform="translate(-70.84567,-405.58258)"
     id="layer1"
     inkscape:groupmode="layer"
     inkscape:label="レイヤー 1">
    <g
       transform="matrix(0.26458337,0,0,0.26458337,12.559731,171.04523)"
       id="g4301"
       style="stroke-width:1.5;stroke-miterlimit:4;stroke-dasharray:none">
      <path
         style="fill:#ffffff;stroke:#000000;stroke-width:1.5;stroke-linecap:butt;stroke-linejoin:miter;stroke-miterlimit:4;stroke-dasharray:none;stroke-opacity:1"
         d="m 237.15616,1055.3312 -4e-5,22.8846 c -5e-5,0.7105 1.67032,0.1706 3.20168,-0.7135 1.71551,-0.9904 3.20173,-4.576 3.2018,-5.2864 l 8e-5,-16.8847"
         id="path3918"
         inkscape:connector-curvature="0"
         sodipodi:nodetypes="ccscc" />
      <path
         sodipodi:nodetypes="ccscc"
         inkscape:connector-curvature="0"
         id="path3693"
         d="m 227.0818,898.75979 -1.8e-4,134.89141 c -1.7e-4,2.9464 5.94371,13.3347 13.27587,13.3347 7.33215,0 13.27604,-10.3884 13.27636,-13.3344 l 3.3e-4,-134.89171"
         style="fill:#ffffff;stroke:#000000;stroke-width:1.5;stroke-linecap:butt;stroke-linejoin:miter;stroke-miterlimit:4;stroke-dasharray:none;stroke-opacity:1" />
      <path
         sodipodi:arc-type="arc"
         sodipodi:open="true"
         sodipodi:end="6.2831853"
         sodipodi:start="3.1415927"
         d="m 226.04328,897.65332 a 14.313865,5.4630709 0 0 1 14.31387,-5.46307 14.313865,5.4630709 0 0 1 14.31386,5.46307"
         sodipodi:ry="5.4630709"
         sodipodi:rx="14.313865"
         sodipodi:cy="897.65332"
         sodipodi:cx="240.35715"
         id="path3708"
         style="fill:#ffffff;stroke:#000000;stroke-width:1.5;stroke-linecap:round;stroke-linejoin:miter;stroke-miterlimit:4;stroke-dasharray:none;stroke-dashoffset:0;stroke-opacity:1"
         sodipodi:type="arc" />
      <path
         sodipodi:arc-type="arc"
         d="m 230.73943,897.37619 a 9.9569969,3.4148161 0 0 1 3.21748,-3.49972 9.9569969,3.4148161 0 0 1 10.60825,-0.47897 9.9569969,3.4148161 0 0 1 5.74898,3.09487"
         sodipodi:ry="3.4148161"
         sodipodi:rx="9.9569969"
         sodipodi:cy="896.49237"
         sodipodi:cx="240.35715"
         id="path3740-4"
         style="fill:none;stroke:#000000;stroke-width:1.5;stroke-linecap:round;stroke-linejoin:miter;stroke-miterlimit:4;stroke-dasharray:none;stroke-dashoffset:0;stroke-opacity:1"
         sodipodi:type="arc"
         sodipodi:start="2.8797933"
         sodipodi:end="6.2831853"
         sodipodi:open="true" />
      <path
         sodipodi:nodetypes="csccsc"
         inkscape:connector-curvature="0"
         id="path3744-8"
         d="m 250.31414,896.49238 c 0,1.88595 -4.4579,3.41482 -9.957,3.41482 -5.49909,0 -9.95699,-1.52887 -9.95699,-3.41482 l -4.35687,1.16093 c 0,3.01717 6.40854,5.46307 14.31386,5.46307 7.90534,0 14.31387,-2.4459 14.31387,-5.46307"
         style="fill:#ffffff;stroke:none;stroke-width:1.5;stroke-miterlimit:4;stroke-dasharray:none" />
      <path
         sodipodi:arc-type="arc"
         sodipodi:open="true"
         sodipodi:end="3.1415927"
         sodipodi:start="0"
         sodipodi:type="arc"
         style="fill:none;stroke:#000000;stroke-width:1.5;stroke-linecap:round;stroke-linejoin:miter;stroke-miterlimit:4;stroke-dasharray:none;stroke-dashoffset:0;stroke-opacity:1"
         id="path3695"
         sodipodi:cx="240.35715"
         sodipodi:cy="896.49237"
         sodipodi:rx="9.9569969"
         sodipodi:ry="3.4148161"
         d="m 250.31414,896.49237 a 9.9569969,3.4148161 0 0 1 -4.97849,2.95732 9.9569969,3.4148161 0 0 1 -9.957,0 9.9569969,3.4148161 0 0 1 -4.9785,-2.95732" />
      <path
         sodipodi:arc-type="arc"
         sodipodi:open="true"
         sodipodi:end="3.1415927"
         sodipodi:start="0"
         sodipodi:type="arc"
         style="fill:none;stroke:#000000;stroke-width:1.5;stroke-linecap:round;stroke-linejoin:miter;stroke-miterlimit:4;stroke-dasharray:none;stroke-dashoffset:0;stroke-opacity:1"
         id="path3035"
         sodipodi:cx="240.35715"
         sodipodi:cy="897.65332"
         sodipodi:rx="14.313865"
         sodipodi:ry="5.4630709"
         d="m 254.67101,897.65332 a 14.313865,5.4630709 0 0 1 -7.15693,4.73116 14.313865,5.4630709 0 0 1 -14.31387,0 14.313865,5.4630709 0 0 1 -7.15693,-4.73116" />
      <ellipse
         ry="5.3345547"
         rx="13.276042"
         cy="921.74597"
         cx="240.35715"
         style="fill:none;stroke:#000000;stroke-width:1.5;stroke-linecap:round;stroke-linejoin:round;stroke-miterlimit:4;stroke-dasharray:none;stroke-dashoffset:0;stroke-opacity:1"
         id="path3914" />
      <path
         inkscape:connector-curvature="0"
         sodipodi:nodetypes="ccscsccccc"
         id="rect4369"
         d="m 255.57663,1055.7959 -0.1894,6.3191 c 0,0.8412 -0.48777,1.5184 -1.32892,1.5184 -0.84115,0 -1.32892,-0.6772 -1.32892,-1.5184 l -0.18941,-6.3191 m 0,-7.8447 0.18941,-5.813 c 0,-0.8412 0.48777,-1.5184 1.32892,-1.5184 0.84115,0 1.32892,0.6772 1.32892,1.5184 l 0.1894,5.813"
         style="fill:#ffffff;stroke:#000000;stroke-width:1.5;stroke-linecap:butt;stroke-linejoin:round;stroke-miterlimit:4;stroke-dasharray:none;stroke-dashoffset:0;stroke-opacity:1" />
      <path
         inkscape:connector-curvature="0"
         sodipodi:nodetypes="cccccc"
         id="path4365"
         d="m 249.98397,1047.8418 h 6.37461 c 0.99445,0.054 1.3899,0.6329 1.43149,1.521 v 4.9655 c 0.0256,0.9471 -0.47879,1.6929 -1.74463,1.6999 h -6.06147"
         style="fill:#ffffff;stroke:#000000;stroke-width:1.5;stroke-linecap:butt;stroke-linejoin:miter;stroke-miterlimit:4;stroke-dasharray:none;stroke-opacity:1" />
      <path
         inkscape:connector-curvature="0"
         inkscape:original-d="m 232.10587,1047.7298 c -0.31632,-0.3163 -1.10712,-1.1071 -1.10712,-1.1071 h -3.63765 v 10.7231 h 3.60602 l 1.13875,-1.1387"
         inkscape:path-effect="#path-effect4382"
         id="path4380"
         d="m 232.10587,1047.7298 -1.10712,-1.1071 h -3.63765 v 10.7231 h 3.60602 l 1.13875,-1.1387"
         style="fill:#ffffff;stroke:#000000;stroke-width:1.5;stroke-linecap:butt;stroke-linejoin:miter;stroke-miterlimit:4;stroke-dasharray:none;stroke-opacity:1" />
      <path
         inkscape:connector-curvature="0"
         id="path4361"
         d="m 237.04042,1047.4135 h -4.80803 v 8.6671 h 17.524 v -8.6671 h -5.82024"
         style="fill:#ffffff;stroke:#000000;stroke-width:1.5;stroke-linecap:round;stroke-linejoin:miter;stroke-miterlimit:4;stroke-dasharray:none;stroke-opacity:1"
         sodipodi:nodetypes="cccccc" />
    </g>
  </g>
</svg>
