<?xml version="1.0" encoding="UTF-8" standalone="no"?>
<svg
   xmlns:dc="http://purl.org/dc/elements/1.1/"
   xmlns:cc="http://creativecommons.org/ns#"
   xmlns:rdf="http://www.w3.org/1999/02/22-rdf-syntax-ns#"
   xmlns:svg="http://www.w3.org/2000/svg"
   xmlns="http://www.w3.org/2000/svg"
   xmlns:sodipodi="http://sodipodi.sourceforge.net/DTD/sodipodi-0.dtd"
   xmlns:inkscape="http://www.inkscape.org/namespaces/inkscape"
   inkscape:version="1.0 (4035a4fb49, 2020-05-01)"
   sodipodi:docname="LiebigCondenser.svg"
   id="svg8"
   version="1.1"
   viewBox="0 0 100.02354 24.171507"
   height="91.356873"
   width="378.04172">
  <defs
     id="defs2" />
  <sodipodi:namedview
     fit-margin-right="5"
     fit-margin-bottom="5"
     fit-margin-left="5"
     fit-margin-top="5"
     inkscape:document-rotation="0"
     inkscape:window-maximized="1"
     inkscape:window-y="-8"
     inkscape:window-x="-8"
     inkscape:window-height="1027"
     inkscape:window-width="1920"
     units="px"
     showgrid="false"
     inkscape:current-layer="layer1"
     inkscape:document-units="px"
     inkscape:cy="68.720493"
     inkscape:cx="173.99823"
     inkscape:zoom="4.1713618"
     inkscape:pageshadow="2"
     inkscape:pageopacity="0.0"
     borderopacity="1.0"
     bordercolor="#666666"
     pagecolor="#ffffff"
     id="base" />
  <metadata
     id="metadata5">
    <rdf:RDF>
      <cc:Work
         rdf:about="">
        <dc:format>image/svg+xml</dc:format>
        <dc:type
           rdf:resource="http://purl.org/dc/dcmitype/StillImage" />
        <dc:title></dc:title>
        <cc:license
           rdf:resource="http://creativecommons.org/licenses/by/4.0/" />
        <dc:creator>
          <cc:Agent>
            <dc:title>KYU</dc:title>
          </cc:Agent>
        </dc:creator>
      </cc:Work>
      <cc:License
         rdf:about="http://creativecommons.org/licenses/by/4.0/">
        <cc:permits
           rdf:resource="http://creativecommons.org/ns#Reproduction" />
        <cc:permits
           rdf:resource="http://creativecommons.org/ns#Distribution" />
        <cc:requires
           rdf:resource="http://creativecommons.org/ns#Notice" />
        <cc:requires
           rdf:resource="http://creativecommons.org/ns#Attribution" />
        <cc:permits
           rdf:resource="http://creativecommons.org/ns#DerivativeWorks" />
      </cc:License>
    </rdf:RDF>
  </metadata>
  <g
     transform="translate(34.735529,-287.52411)"
     id="layer1"
     inkscape:groupmode="layer"
     inkscape:label="レイヤー 1">
    <path
       style="display:inline;fill:none;stroke:#000000;stroke-width:0.264583px;stroke-linecap:butt;stroke-linejoin:miter;stroke-opacity:1"
       d="m 56.373336,301.40979 5.556176,0.26455 c 0,0 -0.59598,-0.62316 -0.595985,-2.38121 -5e-6,-1.75806 0.595985,-2.38129 0.595985,-2.38129 l -5.55625,0.26462 h -5.291667 c 0,0 -1.193173,-1.61705 -2.269022,-1.98438 -1.075849,-0.36732 -4.040836,-0.52925 -4.040836,-0.52925 H -3.0844115 l -0.95359,-2.62847 c 0,0 0.266274,-0.4235 0.19821,-0.6343 -0.07531,-0.23326 -0.588357,-0.44109 -0.588357,-0.44109 0,0 0.291479,-0.51496 0.19104,-0.75399 -0.09415,-0.22406 -0.630171,-0.36673 -0.630171,-0.36673 l -0.272855,-0.73837 c 0,0 -0.459628,-0.30255 -1.346403,0.0504 -0.886776,0.35297 -1.071954,0.8353 -1.071954,0.8353 l 0.214698,0.59076 c 0,0 -0.277223,0.52192 -0.174368,0.76096 0.08779,0.20402 0.573947,0.33849 0.573947,0.33849 0,0 -0.255961,0.53432 -0.152067,0.77688 0.08807,0.20562 0.565635,0.36108 0.565635,0.36108 l 0.672002,1.84905 h -4.9321205 c 0,0 -1.525352,0.0548 -2.116666,0.52916 -0.591312,0.47434 -1.058333,1.5875 -1.058333,1.5875 l -12.765454,9e-5 -0.463713,0.43458 -5.55625,0.26464 c 0,0 -0.52914,0.89607 -0.52914,1.94646 2.6e-5,1.05037 0.529219,1.94667 0.529219,1.94667 l 5.556171,0.26456 0.463713,0.43476 12.765454,-9e-5 c 0,0 0.467021,1.11317 1.058333,1.5875 0.591314,0.47434 2.116666,0.52917 2.116666,0.52917 h 48.430238 l 0.752358,2.29635 c 0,0 -0.389123,0.5614 -0.281815,0.8348 0.09069,0.23103 0.654457,0.35509 0.654457,0.35509 0,0 -0.29269,0.52443 -0.202713,0.77629 0.07851,0.21976 0.566047,0.41193 0.566047,0.41193 l 0.429326,1.31239 c 0,0 0.582231,0.20751 1.478947,-0.11467 0.896715,-0.32219 1.123212,-0.62783 1.123212,-0.62783 l -0.36952,-1.2074 c 0,0 0.265618,-0.50893 0.210045,-0.70951 -0.05964,-0.21526 -0.55062,-0.38195 -0.55062,-0.38195 0,0 0.314606,-0.5398 0.225891,-0.80349 -0.08245,-0.24509 -0.618664,-0.46805 -0.618664,-0.46805 l -0.517076,-1.67395 h 4.232389 c 0,0 2.981294,-0.083 4.040836,-0.52908 1.059543,-0.44611 2.269096,-2.24896 2.269096,-2.24896 z"
       id="path2982-1"
       inkscape:connector-curvature="0"
       sodipodi:nodetypes="cczccczcccscscczccscsccczcccczcccczcccscscczccscsccczcc" />
    <path
       style="display:inline;fill:none;stroke:#000000;stroke-width:0.079375;stroke-linecap:butt;stroke-linejoin:miter;stroke-miterlimit:4;stroke-dasharray:none;stroke-opacity:1"
       d="m 56.373336,297.17646 c 0,0 -0.629209,0.51256 -0.629209,2.11667 0,1.6041 0.629209,2.11666 0.629209,2.11666"
       id="path3706-7"
       inkscape:connector-curvature="0"
       sodipodi:nodetypes="czc" />
    <ellipse
       ry="0.98837036"
       rx="2.6486473"
       cy="-62.318089"
       cx="299.29312"
       style="display:inline;fill:none;stroke:#000000;stroke-width:0.258955;stroke-linecap:butt;stroke-linejoin:miter;stroke-miterlimit:4;stroke-dasharray:none;stroke-dashoffset:0;stroke-opacity:1"
       id="path3708"
       transform="rotate(90)" />
    <ellipse
       ry="0.98837036"
       rx="2.6486473"
       cy="-62.847248"
       cx="299.29312"
       transform="rotate(90)"
       id="path3712"
       style="display:inline;fill:#ffffff;stroke:#000000;stroke-width:0.258955;stroke-linecap:butt;stroke-linejoin:miter;stroke-miterlimit:4;stroke-dasharray:none;stroke-dashoffset:0;stroke-opacity:1" />
    <path
       style="display:inline;fill:none;stroke:#000000;stroke-width:0.079375;stroke-linecap:butt;stroke-linejoin:miter;stroke-miterlimit:4;stroke-dasharray:none;stroke-opacity:1"
       d="m -27.163797,297.30875 c 0,0 -0.629208,0.51256 -0.629208,2.11667 0,1.6041 0.629208,2.11666 0.629208,2.11666"
       id="path3706-7-9"
       inkscape:connector-curvature="0"
       sodipodi:nodetypes="czc" />
    <path
       sodipodi:nodetypes="czszcczszcc"
       inkscape:connector-curvature="0"
       id="path3018"
       d="m 51.081595,297.17646 c 0,0 -6.045058,0.5197 -10.583244,0.66137 -4.538186,0.14166 -13.239689,-0.0211 -21.941005,9e-5 -8.7013145,0.0212 -17.4024415,0.22622 -21.9398765,-9e-5 -4.537436,-0.22631 -10.5832335,-1.05834 -10.5832335,-1.05834 v 5.29167 c 0,0 6.0457975,-0.83202 10.5832335,-1.05833 4.537435,-0.22631 13.238403,-0.0352 21.9396365,9e-5 8.701236,0.0353 17.402739,-0.0852 21.941245,-9e-5 4.538507,0.0851 10.583318,0.39696 10.583318,0.39696 z"
       style="display:inline;fill:none;stroke:#000000;stroke-width:0.264583px;stroke-linecap:butt;stroke-linejoin:miter;stroke-opacity:1" />
  </g>
</svg>
