<?xml version="1.0" encoding="UTF-8" standalone="no"?>
<svg
   xmlns:dc="http://purl.org/dc/elements/1.1/"
   xmlns:cc="http://creativecommons.org/ns#"
   xmlns:rdf="http://www.w3.org/1999/02/22-rdf-syntax-ns#"
   xmlns:svg="http://www.w3.org/2000/svg"
   xmlns="http://www.w3.org/2000/svg"
   xmlns:sodipodi="http://sodipodi.sourceforge.net/DTD/sodipodi-0.dtd"
   xmlns:inkscape="http://www.inkscape.org/namespaces/inkscape"
   inkscape:version="1.0 (4035a4fb49, 2020-05-01)"
   sodipodi:docname="RecoveryFlaskIllust_add.svg"
   id="svg8"
   version="1.1"
   viewBox="0 0 16.885528 28.752571"
   height="108.67113"
   width="63.819313">
  <defs
     id="defs2" />
  <sodipodi:namedview
     fit-margin-right="5"
     fit-margin-bottom="5"
     fit-margin-left="5"
     fit-margin-top="5"
     inkscape:document-rotation="0"
     inkscape:window-maximized="1"
     inkscape:window-y="-8"
     inkscape:window-x="-8"
     inkscape:window-height="1027"
     inkscape:window-width="1920"
     units="px"
     showgrid="false"
     inkscape:current-layer="layer1"
     inkscape:document-units="px"
     inkscape:cy="61.536177"
     inkscape:cx="-28.661431"
     inkscape:zoom="2.0856809"
     inkscape:pageshadow="2"
     inkscape:pageopacity="0.0"
     borderopacity="1.0"
     bordercolor="#666666"
     pagecolor="#ffffff"
     id="base" />
  <metadata
     id="metadata5">
    <rdf:RDF>
      <cc:Work
         rdf:about="">
        <dc:format>image/svg+xml</dc:format>
        <dc:type
           rdf:resource="http://purl.org/dc/dcmitype/StillImage" />
        <dc:title></dc:title>
        <cc:license
           rdf:resource="http://creativecommons.org/licenses/by/4.0/" />
        <dc:creator>
          <cc:Agent>
            <dc:title>KYU</dc:title>
          </cc:Agent>
        </dc:creator>
      </cc:Work>
      <cc:License
         rdf:about="http://creativecommons.org/licenses/by/4.0/">
        <cc:permits
           rdf:resource="http://creativecommons.org/ns#Reproduction" />
        <cc:permits
           rdf:resource="http://creativecommons.org/ns#Distribution" />
        <cc:requires
           rdf:resource="http://creativecommons.org/ns#Notice" />
        <cc:requires
           rdf:resource="http://creativecommons.org/ns#Attribution" />
        <cc:permits
           rdf:resource="http://creativecommons.org/ns#DerivativeWorks" />
      </cc:License>
    </rdf:RDF>
  </metadata>
  <g
     transform="translate(-85.202679,-327.62738)"
     id="layer1"
     inkscape:groupmode="layer"
     inkscape:label="レイヤー 1">
    <path
       sodipodi:nodetypes="ssscscczzzccscssss"
       inkscape:connector-curvature="0"
       id="path881"
       d="m 91.401291,332.66116 c -0.331033,0 -0.599075,0.38563 -0.599075,0.71668 v 0.28365 c 0,0.23419 0.135083,0.43567 0.33033,0.53378 -0.0029,0.0388 -0.0056,0.078 -0.0056,0.11755 v 5.63806 c -0.08863,0.16698 -0.174982,0.34086 -0.268745,0.51321 0,0 -4.646902,5.99459 -4.315707,8.76409 0.331195,2.7695 2.116463,5.82885 7.1114,5.82885 4.994937,0 7.111396,-3.11986 7.111396,-5.82885 0,-2.70899 -4.315702,-8.76409 -4.315702,-8.76409 -0.09376,-0.17235 -0.180113,-0.34623 -0.268746,-0.51321 v -5.63806 c 0,-0.0396 -0.0027,-0.0788 -0.0056,-0.11755 0.195247,-0.0981 0.33033,-0.29959 0.33033,-0.53378 v -0.28365 c 0,-0.33105 -0.266166,-0.71668 -0.597212,-0.71668 z"
       style="fill:#000000;fill-opacity:1;stroke-width:6.82625;stroke-miterlimit:4" />
    <g
       transform="matrix(0.05972108,0,0,0.05972108,28.206027,293.83235)"
       style="fill:#ffffff;stroke-width:7.21763"
       id="g889">
      <path
         sodipodi:nodetypes="ssszzzss"
         inkscape:connector-curvature="0"
         id="path883"
         d="m 1080.2639,768.79688 h 31.3074 c 12.4557,0 16.5312,11.60733 22.4834,22.61113 0,0 64.0465,72.72595 70.7014,130.706 6.6549,57.98005 -50.0288,91.17599 -108.8386,91.17599 -58.8098,0 -108.83843,-42.20813 -108.83843,-91.17599 0,-48.96786 70.70143,-130.706 70.70143,-130.706 5.9522,-11.00381 10.0276,-22.61113 22.4834,-22.61113 z"
         style="fill:#ffffff;stroke-width:186.215;stroke-miterlimit:4" />
      <rect
         style="fill:#ffffff;stroke-width:186.215;stroke-miterlimit:4;stroke-dasharray:none"
         id="rect885"
         width="64.230453"
         height="117.7036"
         x="1063.7814"
         y="670.49133"
         ry="0" />
      <rect
         transform="rotate(-90)"
         ry="4.3000188"
         y="1058.1317"
         x="-671.95728"
         height="75.529411"
         width="13.263481"
         id="rect887"
         style="fill:#ffffff;stroke-width:186.215;stroke-miterlimit:4;stroke-dasharray:none" />
    </g>
    <g
       id="g895"
       style="fill:#000000;stroke-width:7.77059"
       transform="matrix(0.0554713,0,0,0.0554713,32.864575,297.38514)">
      <path
         style="fill:#000000;stroke-width:200.481;stroke-miterlimit:4"
         d="m 1206.7265,924.08429 c 0,0 4.4826,91.17611 -108.8386,91.17611 -113.32133,0 -108.83855,-91.17611 -108.83855,-91.17611 z"
         id="path893"
         inkscape:connector-curvature="0"
         sodipodi:nodetypes="czcc" />
    </g>
    <path
       style="fill:none;fill-rule:evenodd;stroke:#000000;stroke-width:0.264583px;stroke-linecap:butt;stroke-linejoin:miter;stroke-opacity:1"
       d="m 92.93965,328.95707 0.308576,6.01546 0.419515,4.10459 0.419516,-4.10459 0.264493,-6.01546"
       id="path4624"
       inkscape:connector-curvature="0"
       sodipodi:nodetypes="ccccc" />
    <path
       style="fill:#000000;fill-rule:evenodd;stroke:none;stroke-width:0.264583px;stroke-linecap:butt;stroke-linejoin:miter;stroke-opacity:1"
       d="m 93.645437,339.53681 c 0,0 -1.774267,3.2096 0,3.2096 1.774267,0 0,-3.2096 0,-3.2096 z"
       id="path4626"
       inkscape:connector-curvature="0"
       sodipodi:nodetypes="czc" />
  </g>
</svg>
