<?xml version="1.0" encoding="UTF-8" standalone="no"?>
<svg
   xmlns:dc="http://purl.org/dc/elements/1.1/"
   xmlns:cc="http://creativecommons.org/ns#"
   xmlns:rdf="http://www.w3.org/1999/02/22-rdf-syntax-ns#"
   xmlns:svg="http://www.w3.org/2000/svg"
   xmlns="http://www.w3.org/2000/svg"
   xmlns:sodipodi="http://sodipodi.sourceforge.net/DTD/sodipodi-0.dtd"
   xmlns:inkscape="http://www.inkscape.org/namespaces/inkscape"
   width="87.255531"
   height="113.97941"
   viewBox="0 0 23.086361 30.157054"
   version="1.1"
   id="svg8"
   sodipodi:docname="RecoveryFlask2wayCapped.svg"
   inkscape:version="1.0 (4035a4fb49, 2020-05-01)">
  <defs
     id="defs2">
    <inkscape:path-effect
       effect="spiro"
       id="path-effect1084"
       is_visible="true"
       lpeversion="0" />
    <inkscape:path-effect
       is_visible="true"
       id="path-effect4382"
       effect="spiro"
       lpeversion="0" />
    <inkscape:path-effect
       lpeversion="0"
       effect="spiro"
       id="path-effect4350"
       is_visible="true" />
    <inkscape:path-effect
       lpeversion="0"
       is_visible="true"
       id="path-effect4354"
       effect="spiro" />
    <inkscape:path-effect
       lpeversion="0"
       effect="spiro"
       id="path-effect4378"
       is_visible="true" />
    <inkscape:path-effect
       lpeversion="0"
       is_visible="true"
       id="path-effect4267"
       effect="spiro" />
  </defs>
  <sodipodi:namedview
     id="base"
     pagecolor="#ffffff"
     bordercolor="#666666"
     borderopacity="1.0"
     inkscape:pageopacity="0.0"
     inkscape:pageshadow="2"
     inkscape:zoom="4.1713618"
     inkscape:cx="26.210137"
     inkscape:cy="49.644181"
     inkscape:document-units="px"
     inkscape:current-layer="layer1"
     showgrid="false"
     units="px"
     inkscape:window-width="1920"
     inkscape:window-height="1027"
     inkscape:window-x="-8"
     inkscape:window-y="-8"
     inkscape:window-maximized="1"
     inkscape:document-rotation="0"
     fit-margin-top="5"
     fit-margin-left="5"
     fit-margin-bottom="5"
     fit-margin-right="5" />
  <metadata
     id="metadata5">
    <rdf:RDF>
      <cc:Work
         rdf:about="">
        <dc:format>image/svg+xml</dc:format>
        <dc:type
           rdf:resource="http://purl.org/dc/dcmitype/StillImage" />
        <dc:title></dc:title>
        <cc:license
           rdf:resource="http://creativecommons.org/licenses/by/4.0/" />
        <dc:creator>
          <cc:Agent>
            <dc:title>KYU</dc:title>
          </cc:Agent>
        </dc:creator>
      </cc:Work>
      <cc:License
         rdf:about="http://creativecommons.org/licenses/by/4.0/">
        <cc:permits
           rdf:resource="http://creativecommons.org/ns#Reproduction" />
        <cc:permits
           rdf:resource="http://creativecommons.org/ns#Distribution" />
        <cc:requires
           rdf:resource="http://creativecommons.org/ns#Notice" />
        <cc:requires
           rdf:resource="http://creativecommons.org/ns#Attribution" />
        <cc:permits
           rdf:resource="http://creativecommons.org/ns#DerivativeWorks" />
      </cc:License>
    </rdf:RDF>
  </metadata>
  <g
     inkscape:label="レイヤー 1"
     inkscape:groupmode="layer"
     id="layer1"
     transform="translate(-24.613533,-504.49024)">
    <g
       id="g4459"
       transform="matrix(0.26458335,0,0,0.26458335,23.788536,278.31816)">
      <path
         style="fill:none;stroke:#000000;stroke-width:0.3;stroke-linecap:butt;stroke-linejoin:miter;stroke-miterlimit:4;stroke-dasharray:none;stroke-opacity:1"
         d="m 27.703852,889.80242 c 0,0 1.93724,2.37811 8,2.37811 6.06276,0 8,-2.37811 8,-2.37811"
         id="path4461"
         inkscape:connector-curvature="0"
         sodipodi:nodetypes="czc" />
      <ellipse
         ry="3.7249374"
         rx="10.480332"
         cy="53.717285"
         cx="52.275394"
         style="fill:none;stroke:#000000;stroke-width:1;stroke-linecap:butt;stroke-linejoin:miter;stroke-miterlimit:4;stroke-dasharray:none;stroke-dashoffset:0;stroke-opacity:1"
         id="path4463"
         transform="matrix(0.95518302,0,0,1.0028552,-14.22872,813.46343)" />
      <ellipse
         ry="3.7249374"
         rx="10.480332"
         cy="53.717285"
         cx="52.275394"
         transform="matrix(0.95518302,0,0,1.0028552,-14.22872,811.46343)"
         id="path4465"
         style="fill:#ffffff;stroke:#000000;stroke-width:1;stroke-linecap:butt;stroke-linejoin:miter;stroke-miterlimit:4;stroke-dasharray:none;stroke-dashoffset:0;stroke-opacity:1" />
      <path
         sodipodi:nodetypes="zczcczzcczcccscz"
         inkscape:connector-curvature="0"
         id="path4467"
         d="m 62.408952,914.03201 c 2.54121,-12.82389 18.18877,-36.92271 18.18877,-36.92271 0,0 -3.14189,0.86575 -8.99137,-2.28614 -5.84949,-3.15188 -6.85464,-6.25225 -6.85464,-6.25225 l -12.44017,24.83019 c 0,0 -1.15333,2.06851 -2.21287,2.49853 -1.05954,0.43001 -2.04814,1.19493 -3.04411,-0.54015 -0.99597,-1.73509 -3.35071,-5.55706 -3.35071,-5.55706 l 0.99985,-20.99972 c 0,0 -2.35524,2.25252 -8.99985,2.25254 -6.64461,2e-5 -9.00015,-2.25254 -9.00015,-2.25254 v 1e-5 l 1.00015,21 c 0,0 -47.84928,73.50024 8,73.50024 27.33054,0 29.82781,-17.60159 25.29577,-35.46443 0,0 -1.13188,-0.98262 1.40933,-13.80651 z"
         style="fill:none;stroke:#000000;stroke-width:1px;stroke-linecap:round;stroke-linejoin:miter;stroke-opacity:1" />
      <path
         sodipodi:nodetypes="czc"
         inkscape:connector-curvature="0"
         id="path4469"
         d="m 55.670862,887.53211 c 0,0 0.57735,3.01246 5.91461,5.88837 5.33725,2.87589 8.17073,1.7013 8.17073,1.7013"
         style="fill:none;stroke:#000000;stroke-width:0.3;stroke-linecap:butt;stroke-linejoin:miter;stroke-miterlimit:4;stroke-dasharray:none;stroke-opacity:1" />
      <ellipse
         ry="3.7249374"
         rx="10.480332"
         cy="53.717285"
         cx="52.275394"
         transform="matrix(0.84087997,0.45309545,-0.47570897,0.8828474,54.967962,800.4374)"
         id="path4471"
         style="fill:none;stroke:#000000;stroke-width:1;stroke-linecap:butt;stroke-linejoin:miter;stroke-miterlimit:4;stroke-dasharray:none;stroke-dashoffset:0;stroke-opacity:1" />
      <ellipse
         ry="3.7249374"
         rx="10.480332"
         cy="53.717285"
         cx="52.275394"
         style="fill:#ffffff;stroke:#000000;stroke-width:1;stroke-linecap:butt;stroke-linejoin:miter;stroke-miterlimit:4;stroke-dasharray:none;stroke-dashoffset:0;stroke-opacity:1"
         id="path4473"
         transform="matrix(0.84087997,0.45309545,-0.47570897,0.8828474,55.916662,798.67673)" />
    </g>
    <path
       style="fill:#ffffff;stroke:#000000;stroke-width:0.264583;stroke-linecap:butt;stroke-linejoin:miter;stroke-miterlimit:4;stroke-dasharray:none;stroke-opacity:1"
       d="m 33.235281,511.0481 c 1.62663,-0.002 2.151312,-0.37274 2.453623,-0.50361 0.302312,-0.13086 0.192211,-0.31461 0.192211,-0.31461 l 0.299315,-2.24892 0.03205,-0.69482 c 0,0 -1.219142,0.62939 -2.977195,0.62939 -1.758053,1e-5 -2.977274,-0.62939 -2.977274,-0.62939 l 0.03209,0.69483 0.299355,2.24893 c 0,0 -0.08003,0.18092 0.244933,0.31461 0.324967,0.13368 0.77427,0.50509 2.4009,0.50359 z"
       id="path4479"
       inkscape:connector-curvature="0"
       sodipodi:nodetypes="zzccczccczz" />
    <ellipse
       ry="0.98837036"
       rx="3.0495517"
       cy="506.931"
       cx="33.235283"
       style="fill:#ffffff;stroke:#000000;stroke-width:0.258955;stroke-linecap:butt;stroke-linejoin:miter;stroke-miterlimit:4;stroke-dasharray:none;stroke-dashoffset:0;stroke-opacity:1"
       id="path4481" />
    <g
       transform="matrix(0.23897127,0.11356532,-0.11356532,0.23897127,133.05589,297.68093)"
       id="g4483">
      <g
         transform="translate(-1.5149996,36)"
         id="g4485">
        <path
           sodipodi:nodetypes="zzccczccczz"
           inkscape:connector-curvature="0"
           id="path4487"
           d="m 37.219231,843.60914 c 6.147893,-0.006 8.130941,-1.40879 9.273535,-1.90339 1.142594,-0.4946 0.726465,-1.1891 0.726465,-1.1891 l 1.13127,-8.49984 0.121118,-2.6261 c 0,0 -4.607778,2.37879 -11.252388,2.37881 -6.64461,2e-5 -11.252688,-2.37881 -11.252688,-2.37881 l 0.121268,2.62615 1.13142,8.49989 c 0,0 -0.302487,0.6838 0.925733,1.18905 1.22822,0.50525 2.926374,1.909 9.074267,1.90334 z"
           style="fill:#ffffff;stroke:#000000;stroke-width:1;stroke-linecap:butt;stroke-linejoin:miter;stroke-miterlimit:4;stroke-dasharray:none;stroke-opacity:1" />
        <ellipse
           ry="3.7249374"
           rx="12.066655"
           cy="53.717285"
           cx="52.275394"
           transform="matrix(0.95518302,0,0,1.0028552,-12.713341,774.17771)"
           id="path4489"
           style="fill:#ffffff;stroke:#000000;stroke-width:1;stroke-linecap:butt;stroke-linejoin:miter;stroke-miterlimit:4;stroke-dasharray:none;stroke-dashoffset:0;stroke-opacity:1" />
        <path
           sodipodi:arc-type="arc"
           sodipodi:type="arc"
           style="fill:#ffffff;stroke:#000000;stroke-width:1;stroke-linecap:butt;stroke-linejoin:miter;stroke-miterlimit:4;stroke-dasharray:none;stroke-dashoffset:0;stroke-opacity:1"
           id="path3041"
           sodipodi:cx="52.275394"
           sodipodi:cy="53.717285"
           sodipodi:rx="12.066655"
           sodipodi:ry="3.7249374"
           d="m 64.34205,53.717285 a 12.066655,3.7249374 0 0 1 -6.033328,3.225891 12.066655,3.7249374 0 0 1 -12.066655,0 12.066655,3.7249374 0 0 1 -6.033328,-3.225891"
           transform="matrix(0.95518302,0,0,1.0028552,-12.713341,774.17771)"
           sodipodi:start="0"
           sodipodi:end="3.1415927"
           sodipodi:open="true" />
      </g>
    </g>
    <path
       sodipodi:arc-type="arc"
       d="m 36.284835,506.931 a 3.0495517,0.98837036 0 0 1 -1.524776,0.85595 3.0495517,0.98837036 0 0 1 -3.049552,0 3.0495517,0.98837036 0 0 1 -1.524776,-0.85595"
       sodipodi:ry="0.98837036"
       sodipodi:rx="3.0495517"
       sodipodi:cy="506.931"
       sodipodi:cx="33.235283"
       id="path3039"
       style="fill:#ffffff;stroke:#000000;stroke-width:0.258955;stroke-linecap:butt;stroke-linejoin:miter;stroke-miterlimit:4;stroke-dasharray:none;stroke-dashoffset:0;stroke-opacity:1"
       sodipodi:type="arc"
       sodipodi:start="0"
       sodipodi:end="3.1415927"
       sodipodi:open="true" />
  </g>
</svg>
