<?xml version="1.0" encoding="UTF-8" standalone="no"?>
<svg
   xmlns:dc="http://purl.org/dc/elements/1.1/"
   xmlns:cc="http://creativecommons.org/ns#"
   xmlns:rdf="http://www.w3.org/1999/02/22-rdf-syntax-ns#"
   xmlns:svg="http://www.w3.org/2000/svg"
   xmlns="http://www.w3.org/2000/svg"
   xmlns:sodipodi="http://sodipodi.sourceforge.net/DTD/sodipodi-0.dtd"
   xmlns:inkscape="http://www.inkscape.org/namespaces/inkscape"
   inkscape:version="1.0 (4035a4fb49, 2020-05-01)"
   sodipodi:docname="Sponge.svg"
   id="svg8"
   version="1.1"
   viewBox="0 0 41.486994 24.493895"
   height="92.575348"
   width="156.80124">
  <defs
     id="defs2" />
  <sodipodi:namedview
     fit-margin-right="5"
     fit-margin-bottom="5"
     fit-margin-left="5"
     fit-margin-top="5"
     inkscape:document-rotation="0"
     inkscape:window-maximized="1"
     inkscape:window-y="-8"
     inkscape:window-x="-8"
     inkscape:window-height="1027"
     inkscape:window-width="1920"
     units="px"
     showgrid="false"
     inkscape:current-layer="layer1"
     inkscape:document-units="px"
     inkscape:cy="54.054921"
     inkscape:cx="53.990598"
     inkscape:zoom="4.1713618"
     inkscape:pageshadow="2"
     inkscape:pageopacity="0.0"
     borderopacity="1.0"
     bordercolor="#666666"
     pagecolor="#ffffff"
     id="base" />
  <metadata
     id="metadata5">
    <rdf:RDF>
      <cc:Work
         rdf:about="">
        <dc:format>image/svg+xml</dc:format>
        <dc:type
           rdf:resource="http://purl.org/dc/dcmitype/StillImage" />
        <dc:title></dc:title>
        <cc:license
           rdf:resource="http://creativecommons.org/licenses/by/4.0/" />
        <dc:creator>
          <cc:Agent>
            <dc:title>KYU</dc:title>
          </cc:Agent>
        </dc:creator>
      </cc:Work>
      <cc:License
         rdf:about="http://creativecommons.org/licenses/by/4.0/">
        <cc:permits
           rdf:resource="http://creativecommons.org/ns#Reproduction" />
        <cc:permits
           rdf:resource="http://creativecommons.org/ns#Distribution" />
        <cc:requires
           rdf:resource="http://creativecommons.org/ns#Notice" />
        <cc:requires
           rdf:resource="http://creativecommons.org/ns#Attribution" />
        <cc:permits
           rdf:resource="http://creativecommons.org/ns#DerivativeWorks" />
      </cc:License>
    </rdf:RDF>
  </metadata>
  <g
     transform="translate(2.9835099,-271.10725)"
     id="layer1"
     inkscape:groupmode="layer"
     inkscape:label="レイヤー 1">
    <g
       transform="matrix(0.26458333,0,0,0.26458333,28.395315,-7.5193208)"
       id="g4290">
      <path
         sodipodi:nodetypes="sssssscssscsscsscsssssscs"
         style="fill:#e4d310"
         d="m -12.525329,1139.9248 c -1.127279,-0.3034 -5.478153,-0.3876 -9.500412,-1.4264 -3.045599,-0.7865 -5.398308,-2.4994 -8.907389,-3.3981 -3.898767,-0.9985 -7.349097,-0.3941 -10.303568,-1.1809 -3.216604,-0.8567 -5.845458,-3.081 -7.825368,-3.5838 -3.798469,-0.9646 -8.682207,-0.759 -13.387082,-1.6735 -4.203543,-0.8171 -6.988574,-3.6476 -10.862088,-4.6399 -6.895757,-1.7093 -10.46146,-0.8921 -13.788278,-2.1064 -3.757622,-1.3715 -7.114104,-3.2117 -10.261766,-3.8189 -3.26722,-0.6302 -6.53737,0.3785 -8.64349,-0.2569 -3.81996,-1.1525 -6.69552,-3.8733 -7.10408,-4.7699 -0.67576,-1.4832 -0.63885,-23.3919 0.0409,-24.2826 0.75494,-0.9892 44.74092,-30.7107 45.44994,-30.7107 0.66878,0 98.442661,22.6549 99.461965,23.0461 0.528904,0.2029 0.648347,1.5886 0.802112,9.3049 0.09937,4.9866 0.302836,11.8758 0.452155,13.1488 0.197348,1.6824 0.124557,2.4925 -0.266541,2.9664 -0.142769,0.173 -1.219086,1.2246 -4.448512,4.0995 -1.336442,1.1897 -2.873421,3.9085 -4.558157,5.4005 -1.47144,1.303 -4.037688,1.8999 -5.69936,3.3665 -1.367274,1.2067 -2.565189,3.3281 -4.017899,4.6069 -2.082468,1.8332 -5.0823005,2.8852 -6.9855149,4.6665 -2.0160695,1.8868 -4.7688422,5.2818 -7.12836128,7.3678 -2.81337682,2.4872 -7.67716382,4.4655 -8.11735082,4.5772 -0.440187,0.1118 -2.421025,-0.1699 -4.401855,-0.7031 z"
         id="path4285"
         inkscape:connector-curvature="0" />
      <path
         sodipodi:nodetypes="cscccc"
         style="fill:#409463"
         d="m -113.06794,1088.7875 c 0.75494,-0.9892 44.74092,-30.7107 45.44994,-30.7107 0.67478,0 98.447447,22.6568 99.476131,23.0515 0.551005,0.2115 -0.121997,-0.9773 -0.121997,5.8702 0,1.9249 -40.073297,33.067 -40.073297,33.067 0,0 -104.938687,-31.003 -104.730777,-31.278 z"
         id="path4283"
         inkscape:connector-curvature="0" />
      <path
         sodipodi:nodetypes="sssssscscsssscsssssssscssssscsssscsssssssssscsssssscsscssssssssccssccs"
         style="fill:#4e6f42"
         d="m -48.40956,1129.8899 c -3.120192,-0.7758 -11.306751,-1.2494 -13.457753,-1.7203 -4.294943,-0.9403 -7.534471,-3.7631 -11.343387,-4.5832 -6.77149,-1.4579 -12.34051,-1.6626 -13.779525,-2.1174 -2.951323,-0.9327 -4.260107,-1.8822 -6.934405,-3.1216 -4.293109,-1.9896 -8.83574,-0.3361 -12.12481,-1.2266 -3.88295,-1.0514 -6.42368,-3.7421 -6.58311,-3.8744 -0.42523,-0.3529 -0.53543,-2.9013 -0.53543,-12.3814 v -11.9371 l 4.90208,-3.3576 c 26.85928,-18.3971 39.97092,-27.0934 40.84955,-27.0934 0.54901,0 15.37504,3.3418 32.946729,7.4263 17.571691,4.0844 39.684037,9.2238 49.138544,11.4209 9.45451,2.197 17.282175,4.0868 17.394815,4.1994 0.11264,0.1127 0.223046,1.5911 0.245356,3.2854 0.139347,10.5847 0.215711,19.3973 0.201277,20.3369 -0.0084,0.5481 -0.109706,0.9751 -4.619044,5.0844 -1.227037,1.1182 -2.707741,3.8041 -4.489479,5.3929 -1.356626,1.2097 -3.869891,1.765 -5.59645,3.2927 -1.658051,1.4671 -2.54931,3.0266 -4.586329,4.8223 -1.511513,1.3324 -4.7923142,2.7742 -6.2377847,4.1679 -2.4037288,2.3175 -5.0074153,5.647 -7.56976703,7.8382 -4.40235317,3.7646 -7.84190087,4.3489 -8.04832727,4.3409 -0.1395487,-0.01 -9.880313,-1.3928 -12.89543,-2.0393 -2.682224,-0.5751 -6.130959,-2.7801 -8.911321,-3.3756 -4.391952,-0.9406 -6.992343,-0.5039 -10.519753,-1.4082 -4.006013,-1.0269 -6.154725,-3.051 -7.446246,-3.3721 z m 39.685842,0.2088 c 0,-8.3434 -0.0074,-8.4153 -0.900382,-8.7954 -0.49521,-0.2107 -13.055532,-3.53 -27.911828,-7.3761 -14.856292,-3.8461 -37.447562,-9.7023 -50.202822,-13.0138 -12.75526,-3.3116 -23.51482,-6.021 -23.91014,-6.021 -0.66914,0 -0.71875,0.5904 -0.71875,8.5546 0,6.367 0.12792,8.6553 0.50021,8.9483 0.15417,0.1213 2.44139,2.7363 5.89433,3.6671 2.70897,0.7302 6.135451,-0.3286 9.81233,0.6105 3.223027,0.8232 5.993409,2.5661 9.416021,3.7501 0.65749,0.2274 6.389123,0.5464 13.916907,2.2688 3.727459,0.8528 7.022907,3.3476 11.364287,4.5569 1.297811,0.3615 6.368313,0.6491 13.131361,1.9923 2.39628,0.4759 4.975807,2.5681 7.515736,3.1754 4.703274,1.1247 7.598589,0.6421 10.356622,1.3528 2.855354,0.7358 5.942621,2.8755 8.72893,3.5972 4.714824,1.2212 11.424049,1.4772 11.8852084,1.3803 l 1.1219796,-0.2359 z m 20.731555,-7.032 c 2.295555,-2.0192 2.898693,-3.3034 4.996013,-5.1559 1.588516,-1.403 4.074696,-1.9301 5.452279,-3.1511 1.80825,-1.6028 3.398736,-4.3713 4.67674,-5.5124 1.737439,-1.5512 1.91522,-1.7945 2.259565,-2.1256 l 1.900805,-1.8278 v -8.6858 c 0,-4.5434 -0.143524,-6.9179 -0.418145,-6.9179 -0.43113,0 -37.404899,30.4642 -38.298261,31.5555 -0.360429,0.4403 -0.500212,2.6957 -0.500212,8.071 0,7.0667 -0.027819,9.0038 0.7227269,9.0038 0.088735,0 2.8504295,-0.9822 6.1379011,-3.8233 2.446964,-2.1149 5.317416,-5.7212 7.5465416,-8.0355 0.9414488,-0.9775 4.5084224,-2.5016 5.5240464,-3.395 z m -1.623448,-24.7777 c 10.179306,-8.4663 18.507835,-15.5682 18.507835,-15.7822 0,-0.5092 1.653761,-0.102 -34.214499,-8.4243 -17.167275,-3.9833 -37.786012,-8.7757 -45.819415,-10.6499 -8.03341,-1.8741 -15.14642,-3.4341 -15.8067,-3.4665 -0.96537,-0.047 -5.15874,2.6328 -21.40907,13.6842 -11.11471,7.5588 -20.46796,13.9856 -20.785,14.2818 -0.31704,0.2962 -0.46229,0.6527 -0.32277,0.7922 0.44641,0.4464 98.484397,24.9022 99.941174,24.9305 1.270087,0.025 3.125133,-1.407 19.908445,-15.3658 z"
         id="path4281"
         inkscape:connector-curvature="0" />
    </g>
  </g>
</svg>
