<?xml version="1.0" encoding="UTF-8" standalone="no"?>
<svg
   xmlns:dc="http://purl.org/dc/elements/1.1/"
   xmlns:cc="http://creativecommons.org/ns#"
   xmlns:rdf="http://www.w3.org/1999/02/22-rdf-syntax-ns#"
   xmlns:svg="http://www.w3.org/2000/svg"
   xmlns="http://www.w3.org/2000/svg"
   xmlns:sodipodi="http://sodipodi.sourceforge.net/DTD/sodipodi-0.dtd"
   xmlns:inkscape="http://www.inkscape.org/namespaces/inkscape"
   width="61.3834"
   height="138.06444"
   viewBox="0 0 16.241026 36.529551"
   version="1.1"
   id="svg8"
   sodipodi:docname="TubeForSPPSwEdge.svg"
   inkscape:version="1.0 (4035a4fb49, 2020-05-01)">
  <defs
     id="defs2">
    <inkscape:path-effect
       is_visible="true"
       id="path-effect4382"
       effect="spiro"
       lpeversion="0" />
  </defs>
  <sodipodi:namedview
     id="base"
     pagecolor="#ffffff"
     bordercolor="#666666"
     borderopacity="1.0"
     inkscape:pageopacity="0.0"
     inkscape:pageshadow="2"
     inkscape:zoom="2.0856809"
     inkscape:cx="23.218878"
     inkscape:cy="130.26241"
     inkscape:document-units="px"
     inkscape:current-layer="layer1"
     showgrid="false"
     units="px"
     inkscape:window-width="1920"
     inkscape:window-height="1027"
     inkscape:window-x="-8"
     inkscape:window-y="-8"
     inkscape:window-maximized="1"
     inkscape:document-rotation="0"
     fit-margin-top="5"
     fit-margin-left="5"
     fit-margin-bottom="5"
     fit-margin-right="5" />
  <metadata
     id="metadata5">
    <rdf:RDF>
      <cc:Work
         rdf:about="">
        <dc:format>image/svg+xml</dc:format>
        <dc:type
           rdf:resource="http://purl.org/dc/dcmitype/StillImage" />
        <dc:title></dc:title>
        <cc:license
           rdf:resource="http://creativecommons.org/licenses/by/4.0/" />
        <dc:creator>
          <cc:Agent>
            <dc:title>KYU</dc:title>
          </cc:Agent>
        </dc:creator>
      </cc:Work>
      <cc:License
         rdf:about="http://creativecommons.org/licenses/by/4.0/">
        <cc:permits
           rdf:resource="http://creativecommons.org/ns#Reproduction" />
        <cc:permits
           rdf:resource="http://creativecommons.org/ns#Distribution" />
        <cc:requires
           rdf:resource="http://creativecommons.org/ns#Notice" />
        <cc:requires
           rdf:resource="http://creativecommons.org/ns#Attribution" />
        <cc:permits
           rdf:resource="http://creativecommons.org/ns#DerivativeWorks" />
      </cc:License>
    </rdf:RDF>
  </metadata>
  <g
     inkscape:label="レイヤー 1"
     inkscape:groupmode="layer"
     id="layer1"
     transform="translate(-71.476023,-502.26629)">
    <path
       sodipodi:arc-type="arc"
       sodipodi:open="true"
       sodipodi:end="6.2831853"
       sodipodi:start="3.1415927"
       d="m 77.092204,532.86865 a 2.5043311,0.95581019 0 0 1 2.504331,-0.95581 2.5043311,0.95581019 0 0 1 2.504331,0.95581"
       sodipodi:ry="0.95581019"
       sodipodi:rx="2.5043311"
       sodipodi:cy="532.86865"
       sodipodi:cx="79.596535"
       id="path4167"
       style="fill:#ffffff;stroke:#000000;stroke-width:0.264583;stroke-linecap:round;stroke-linejoin:miter;stroke-miterlimit:4;stroke-dasharray:none;stroke-dashoffset:0;stroke-opacity:1"
       sodipodi:type="arc" />
    <path
       sodipodi:arc-type="arc"
       sodipodi:type="arc"
       style="fill:#ffffff;stroke:#000000;stroke-width:0.207733;stroke-linecap:round;stroke-linejoin:miter;stroke-miterlimit:4;stroke-dasharray:none;stroke-dashoffset:0;stroke-opacity:1"
       id="path4179"
       sodipodi:cx="79.596535"
       sodipodi:cy="532.76843"
       sodipodi:rx="1.9662313"
       sodipodi:ry="0.7504375"
       d="m 77.630303,532.76843 a 1.9662313,0.7504375 0 0 1 1.966232,-0.75043 1.9662313,0.7504375 0 0 1 1.966231,0.75043"
       sodipodi:start="3.1415927"
       sodipodi:end="6.2831853"
       sodipodi:open="true" />
    <g
       transform="matrix(0.26458335,0,0,0.26458335,71.52529,272.07452)"
       id="g4181">
      <path
         sodipodi:arc-type="arc"
         sodipodi:type="arc"
         style="fill:#ffffff;stroke:#000000;stroke-width:1;stroke-linecap:round;stroke-linejoin:miter;stroke-miterlimit:4;stroke-dasharray:none;stroke-dashoffset:0;stroke-opacity:1"
         id="path4122"
         sodipodi:cx="30.505495"
         sodipodi:cy="881.67804"
         sodipodi:rx="25.1917"
         sodipodi:ry="6.1619711"
         d="m 5.3137951,881.67804 a 25.1917,6.1619711 0 0 1 25.1916999,-6.16197 25.1917,6.1619711 0 0 1 25.1917,6.16197"
         sodipodi:start="3.1415927"
         sodipodi:end="6.2831853"
         sodipodi:open="true" />
      <path
         style="fill:#ffffff;stroke:#000000;stroke-width:1;stroke-linecap:butt;stroke-linejoin:miter;stroke-miterlimit:4;stroke-dasharray:none;stroke-opacity:1"
         d="m 27.304511,981.35605 -4.4e-5,16.88454 c -4.5e-5,0.71056 1.433421,1.28655 3.201685,1.28655 1.768264,0 3.201725,-0.57599 3.201803,-1.28642 l 7.8e-5,-16.88467"
         id="path3918"
         inkscape:connector-curvature="0"
         sodipodi:nodetypes="ccscc" />
      <path
         sodipodi:nodetypes="ccscc"
         inkscape:connector-curvature="0"
         id="path3693"
         d="m 17.230146,882.78462 -1.75e-4,94.89142 c -1.75e-4,2.94631 5.943712,5.33467 13.275867,5.33467 7.332156,0 13.276042,-2.38836 13.276367,-5.3344 l 3.24e-4,-94.89169"
         style="fill:#ffffff;stroke:#000000;stroke-width:1;stroke-linecap:butt;stroke-linejoin:miter;stroke-miterlimit:4;stroke-dasharray:none;stroke-opacity:1" />
      <ellipse
         style="fill:none;stroke:#000000;stroke-width:1;stroke-linecap:round;stroke-linejoin:round;stroke-miterlimit:4;stroke-dasharray:none;stroke-dashoffset:0;stroke-opacity:1"
         id="path3914"
         cx="30.505501"
         cy="973.77075"
         rx="13.276042"
         ry="5.3345547" />
      <path
         style="fill:#ffffff;stroke:#000000;stroke-width:1;stroke-linecap:butt;stroke-linejoin:miter;stroke-miterlimit:4;stroke-dasharray:none;stroke-opacity:1"
         d="m 18.708841,886.76427 -1.56e-4,84.92976 c -1.55e-4,2.9475 5.281701,5.33682 11.797199,5.33682 6.515499,0 11.797354,-2.38932 11.797643,-5.33655 l 2.88e-4,-84.93003"
         id="path4141"
         inkscape:connector-curvature="0"
         sodipodi:nodetypes="ccscc" />
      <path
         sodipodi:arc-type="arc"
         d="m 55.697195,881.67804 a 25.1917,6.1619711 0 0 1 -12.59585,5.33642 25.1917,6.1619711 0 0 1 -25.191701,0 25.1917,6.1619711 0 0 1 -12.5958489,-5.33642"
         sodipodi:ry="6.1619711"
         sodipodi:rx="25.1917"
         sodipodi:cy="881.67804"
         sodipodi:cx="30.505495"
         id="path4124"
         style="fill:#ffffff;stroke:#000000;stroke-width:1;stroke-linecap:round;stroke-linejoin:miter;stroke-miterlimit:4;stroke-dasharray:none;stroke-dashoffset:0;stroke-opacity:1"
         sodipodi:type="arc"
         sodipodi:start="0"
         sodipodi:end="3.1415927"
         sodipodi:open="true" />
      <path
         sodipodi:arc-type="arc"
         sodipodi:open="true"
         sodipodi:end="6.2831853"
         sodipodi:start="3.1415927"
         d="m 16.19163,881.67816 a 14.313865,5.4630709 0 0 1 14.313865,-5.46307 14.313865,5.4630709 0 0 1 14.313865,5.46307"
         sodipodi:ry="5.4630709"
         sodipodi:rx="14.313865"
         sodipodi:cy="881.67816"
         sodipodi:cx="30.505495"
         id="path3708"
         style="fill:#ffffff;stroke:#000000;stroke-width:1;stroke-linecap:round;stroke-linejoin:miter;stroke-miterlimit:4;stroke-dasharray:none;stroke-dashoffset:0;stroke-opacity:1"
         sodipodi:type="arc" />
      <path
         sodipodi:nodetypes="csccsc"
         inkscape:connector-curvature="0"
         id="path3744"
         d="m 40.462493,880.51721 c 0,1.88595 -4.4579,3.41482 -9.956998,3.41482 -5.499097,0 -9.956996,-1.52887 -9.956996,-3.41482 l -4.356868,1.16093 c 0,3.01717 6.408536,5.46307 14.313864,5.46307 7.905331,0 14.313867,-2.4459 14.313867,-5.46307"
         style="fill:#ffffff;stroke:none;stroke-width:1;stroke-miterlimit:4;stroke-dasharray:none" />
      <path
         sodipodi:arc-type="arc"
         sodipodi:open="true"
         sodipodi:end="3.1415927"
         sodipodi:start="0"
         sodipodi:type="arc"
         style="fill:none;stroke:#000000;stroke-width:1;stroke-linecap:round;stroke-linejoin:miter;stroke-miterlimit:4;stroke-dasharray:none;stroke-dashoffset:0;stroke-opacity:1"
         id="path3035"
         sodipodi:cx="30.505495"
         sodipodi:cy="881.67816"
         sodipodi:rx="14.313865"
         sodipodi:ry="5.4630709"
         d="m 44.81936,881.67816 a 14.313865,5.4630709 0 0 1 -7.156933,4.73116 14.313865,5.4630709 0 0 1 -14.313865,0 14.313865,5.4630709 0 0 1 -7.156932,-4.73116" />
      <ellipse
         ry="4.7404852"
         rx="11.797588"
         cy="968.42078"
         cx="30.50625"
         id="ellipse4145"
         style="fill:#ffffff;stroke:#000000;stroke-width:0.999823;stroke-linecap:round;stroke-linejoin:round;stroke-miterlimit:4;stroke-dasharray:none;stroke-dashoffset:0;stroke-opacity:1" />
    </g>
    <path
       style="fill:#ffffff;stroke:#000000;stroke-width:0.264583;stroke-linecap:butt;stroke-linejoin:miter;stroke-miterlimit:4;stroke-dasharray:none;stroke-opacity:1"
       d="m 77.556902,532.83258 0.529147,3.80624 c -2e-5,0.37743 0.676326,0.6834 1.51064,0.6834 0.834312,0 1.510662,-0.30597 1.510692,-0.68334 l 0.52921,-3.8063"
       id="path4171"
       inkscape:connector-curvature="0"
       sodipodi:nodetypes="ccscc" />
    <path
       sodipodi:nodetypes="ccscc"
       inkscape:connector-curvature="0"
       id="path4173"
       d="m 78.253167,532.81634 0.348532,3.83312 c -1.3e-5,0.3801 0.445474,0.68823 0.995009,0.68823 0.549536,0 0.995023,-0.30813 0.995043,-0.68818 l 0.34857,-3.83317"
       style="fill:#ffffff;stroke:#000000;stroke-width:0.264583;stroke-linecap:butt;stroke-linejoin:miter;stroke-miterlimit:4;stroke-dasharray:none;stroke-opacity:1" />
    <path
       style="fill:#ffffff;stroke:#000000;stroke-width:0.264583;stroke-linecap:butt;stroke-linejoin:miter;stroke-miterlimit:4;stroke-dasharray:none;stroke-opacity:1"
       d="m 79.026234,532.77794 0.147994,3.8965 c -6e-6,0.38639 0.189158,0.66619 0.422502,0.66619 0.233344,0 0.422507,-0.2798 0.422518,-0.66614 l 0.148009,-3.89655"
       id="path4175"
       inkscape:connector-curvature="0"
       sodipodi:nodetypes="ccscc" />
    <path
       sodipodi:arc-type="arc"
       sodipodi:open="true"
       sodipodi:end="3.1415927"
       sodipodi:start="0"
       sodipodi:type="arc"
       style="fill:#ffffff;stroke:#000000;stroke-width:0.264583;stroke-linecap:round;stroke-linejoin:miter;stroke-miterlimit:4;stroke-dasharray:none;stroke-dashoffset:0;stroke-opacity:1"
       id="path4169"
       sodipodi:cx="79.596535"
       sodipodi:cy="532.86865"
       sodipodi:rx="2.5043311"
       sodipodi:ry="0.95581019"
       d="m 82.100866,532.86865 a 2.5043311,0.95581019 0 0 1 -1.252166,0.82776 2.5043311,0.95581019 0 0 1 -2.504331,0 2.5043311,0.95581019 0 0 1 -1.252165,-0.82776" />
    <path
       sodipodi:arc-type="arc"
       d="m 81.562766,532.76843 a 1.9662313,0.7504375 0 0 1 -0.983116,0.6499 1.9662313,0.7504375 0 0 1 -1.966231,0 1.9662313,0.7504375 0 0 1 -0.983116,-0.6499"
       sodipodi:ry="0.7504375"
       sodipodi:rx="1.9662313"
       sodipodi:cy="532.76843"
       sodipodi:cx="79.596535"
       id="path4177"
       style="fill:#ffffff;stroke:#000000;stroke-width:0.207733;stroke-linecap:round;stroke-linejoin:miter;stroke-miterlimit:4;stroke-dasharray:none;stroke-dashoffset:0;stroke-opacity:1"
       sodipodi:type="arc"
       sodipodi:start="0"
       sodipodi:end="3.1415927"
       sodipodi:open="true" />
  </g>
</svg>
