<?xml version="1.0" encoding="UTF-8" standalone="no"?>
<svg
   xmlns:dc="http://purl.org/dc/elements/1.1/"
   xmlns:cc="http://creativecommons.org/ns#"
   xmlns:rdf="http://www.w3.org/1999/02/22-rdf-syntax-ns#"
   xmlns:svg="http://www.w3.org/2000/svg"
   xmlns="http://www.w3.org/2000/svg"
   xmlns:sodipodi="http://sodipodi.sourceforge.net/DTD/sodipodi-0.dtd"
   xmlns:inkscape="http://www.inkscape.org/namespaces/inkscape"
   inkscape:version="1.0 (4035a4fb49, 2020-05-01)"
   sodipodi:docname="TubeForSPPS.svg"
   id="svg8"
   version="1.1"
   viewBox="0 0 17.008016 64.639879"
   height="244.3082"
   width="64.282265">
  <defs
     id="defs2" />
  <sodipodi:namedview
     fit-margin-right="5"
     fit-margin-bottom="5"
     fit-margin-left="5"
     fit-margin-top="5"
     inkscape:document-rotation="0"
     inkscape:window-maximized="1"
     inkscape:window-y="-8"
     inkscape:window-x="-8"
     inkscape:window-height="1027"
     inkscape:window-width="1920"
     units="px"
     showgrid="false"
     inkscape:current-layer="layer1"
     inkscape:document-units="px"
     inkscape:cy="165.91575"
     inkscape:cx="-161.52614"
     inkscape:zoom="1.4747991"
     inkscape:pageshadow="2"
     inkscape:pageopacity="0.0"
     borderopacity="1.0"
     bordercolor="#666666"
     pagecolor="#ffffff"
     id="base" />
  <metadata
     id="metadata5">
    <rdf:RDF>
      <cc:Work
         rdf:about="">
        <dc:format>image/svg+xml</dc:format>
        <dc:type
           rdf:resource="http://purl.org/dc/dcmitype/StillImage" />
        <dc:title></dc:title>
        <cc:license
           rdf:resource="http://creativecommons.org/licenses/by/4.0/" />
        <dc:creator>
          <cc:Agent>
            <dc:title>KYU</dc:title>
          </cc:Agent>
        </dc:creator>
      </cc:Work>
      <cc:License
         rdf:about="http://creativecommons.org/licenses/by/4.0/">
        <cc:permits
           rdf:resource="http://creativecommons.org/ns#Reproduction" />
        <cc:permits
           rdf:resource="http://creativecommons.org/ns#Distribution" />
        <cc:requires
           rdf:resource="http://creativecommons.org/ns#Notice" />
        <cc:requires
           rdf:resource="http://creativecommons.org/ns#Attribution" />
        <cc:permits
           rdf:resource="http://creativecommons.org/ns#DerivativeWorks" />
      </cc:License>
    </rdf:RDF>
  </metadata>
  <g
     transform="translate(-14.901119,-250.71711)"
     id="layer1"
     inkscape:groupmode="layer"
     inkscape:label="レイヤー 1">
    <g
       id="g10409"
       transform="matrix(0.26458333,0,0,0.26458333,99.756321,47.634165)">
      <path
         sodipodi:arc-type="arc"
         sodipodi:type="arc"
         style="fill:#ffffff;stroke:#000000;stroke-width:3;stroke-linecap:round;stroke-linejoin:miter;stroke-miterlimit:4;stroke-dasharray:none;stroke-dashoffset:0;stroke-opacity:1"
         id="path10378"
         sodipodi:cx="-288.57144"
         sodipodi:cy="963.84467"
         sodipodi:rx="19.151934"
         sodipodi:ry="7.3095827"
         d="m -307.72338,963.84467 a 19.151934,7.3095827 0 0 1 19.15194,-7.30959 19.151934,7.3095827 0 0 1 19.15193,7.30959"
         sodipodi:start="3.1415927"
         sodipodi:end="6.2831853"
         sodipodi:open="true" />
      <path
         sodipodi:arc-type="arc"
         sodipodi:open="true"
         sodipodi:end="6.2831853"
         sodipodi:start="2.8797933"
         sodipodi:type="arc"
         style="fill:none;stroke:#000000;stroke-width:3;stroke-linecap:round;stroke-linejoin:miter;stroke-miterlimit:4;stroke-dasharray:none;stroke-dashoffset:0;stroke-opacity:1"
         id="path10380"
         sodipodi:cx="-288.57144"
         sodipodi:cy="962.29126"
         sodipodi:rx="13.32245"
         sodipodi:ry="4.5690198"
         d="m -301.43994,963.47381 a 13.32245,4.5690198 0 0 1 4.30499,-4.68262 13.32245,4.5690198 0 0 1 14.19382,-0.64087 13.32245,4.5690198 0 0 1 7.69214,4.14094" />
    </g>
    <path
       style="fill:#ffffff;stroke:#000000;stroke-width:0.79375;stroke-linecap:butt;stroke-linejoin:miter;stroke-miterlimit:4;stroke-dasharray:none;stroke-opacity:1"
       d="m 21.887988,302.26961 -2.2e-5,8.00265 c -2.1e-5,0.33676 0.679384,0.60976 1.517473,0.60976 0.838089,0 1.517494,-0.273 1.517531,-0.60971 l 3.7e-5,-8.0027"
       id="path10415"
       inkscape:connector-curvature="0"
       sodipodi:nodetypes="ccscc" />
    <g
       id="g10401"
       transform="matrix(0.26458333,0,0,0.26458333,99.756321,47.634165)">
      <path
         style="fill:#ffffff;stroke:#000000;stroke-width:3;stroke-linecap:butt;stroke-linejoin:miter;stroke-miterlimit:4;stroke-dasharray:none;stroke-opacity:1"
         d="m -306.35222,965.8259 3.99969,29.9837 c -3.2e-4,5.2778 6.18297,9.5562 13.78171,9.5562 7.59874,0 13.78203,-4.2784 13.78261,-9.5558 l 4.00058,-29.9841"
         id="path10376"
         inkscape:connector-curvature="0"
         sodipodi:nodetypes="cczcc" />
      <path
         style="fill:#ffffff;stroke:none;stroke-width:3;stroke-miterlimit:4;stroke-dasharray:none"
         d="m -275.24898,962.29134 c 0,2.52341 -5.96467,4.569 -13.32245,4.569 -7.35779,0 -13.32245,-2.04559 -13.32245,-4.569 l -5.82949,1.5533 c 0,4.03697 8.57461,7.30961 19.15194,7.30961 10.57731,0 19.15193,-3.27264 19.15193,-7.30961"
         id="path10382"
         inkscape:connector-curvature="0"
         sodipodi:nodetypes="csccsc" />
      <path
         sodipodi:arc-type="arc"
         d="m -275.24899,962.29126 a 13.32245,4.5690198 0 0 1 -6.66123,3.95689 13.32245,4.5690198 0 0 1 -13.32245,0 13.32245,4.5690198 0 0 1 -6.66122,-3.95689"
         sodipodi:ry="4.5690198"
         sodipodi:rx="13.32245"
         sodipodi:cy="962.29126"
         sodipodi:cx="-288.57144"
         id="path10384"
         style="fill:none;stroke:#000000;stroke-width:3;stroke-linecap:round;stroke-linejoin:miter;stroke-miterlimit:4;stroke-dasharray:none;stroke-dashoffset:0;stroke-opacity:1"
         sodipodi:type="arc"
         sodipodi:start="0"
         sodipodi:end="3.1415927"
         sodipodi:open="true" />
      <path
         sodipodi:arc-type="arc"
         d="m -269.41951,963.84467 a 19.151934,7.3095827 0 0 1 -9.57597,6.33028 19.151934,7.3095827 0 0 1 -19.15193,0 19.151934,7.3095827 0 0 1 -9.57597,-6.33028"
         sodipodi:ry="7.3095827"
         sodipodi:rx="19.151934"
         sodipodi:cy="963.84467"
         sodipodi:cx="-288.57144"
         id="path10386"
         style="fill:none;stroke:#000000;stroke-width:3;stroke-linecap:round;stroke-linejoin:miter;stroke-miterlimit:4;stroke-dasharray:none;stroke-dashoffset:0;stroke-opacity:1"
         sodipodi:type="arc"
         sodipodi:start="0"
         sodipodi:end="3.1415927"
         sodipodi:open="true" />
      <path
         sodipodi:nodetypes="cc"
         inkscape:connector-curvature="0"
         id="path10397"
         d="m -296.35222,971.8259 3.99969,31.9837"
         style="fill:none;stroke:#000000;stroke-width:3;stroke-linecap:round;stroke-linejoin:miter;stroke-miterlimit:4;stroke-dasharray:none;stroke-opacity:1" />
      <path
         style="fill:none;stroke:#000000;stroke-width:3;stroke-linecap:round;stroke-linejoin:miter;stroke-miterlimit:4;stroke-dasharray:none;stroke-opacity:1"
         d="m -284.78821,1003.81 4.00058,-31.9841"
         id="path10399"
         inkscape:connector-curvature="0"
         sodipodi:nodetypes="cc" />
    </g>
    <path
       sodipodi:nodetypes="ccscc"
       inkscape:connector-curvature="0"
       id="path10417"
       d="m 17.113129,255.5506 -8.2e-5,44.97485 c -8.5e-5,1.39642 2.817087,2.52841 6.292244,2.52841 3.475157,0 6.292329,-1.13199 6.292483,-2.5283 l 1.53e-4,-44.97496"
       style="fill:#ffffff;stroke:#000000;stroke-width:0.79375;stroke-linecap:butt;stroke-linejoin:miter;stroke-miterlimit:4;stroke-dasharray:none;stroke-opacity:1" />
    <path
       sodipodi:arc-type="arc"
       sodipodi:open="true"
       sodipodi:end="6.2831853"
       sodipodi:start="3.1415927"
       d="m 16.620911,255.02618 a 6.7842159,2.5892835 0 0 1 6.784216,-2.58928 6.7842159,2.5892835 0 0 1 6.784215,2.58928"
       sodipodi:ry="2.5892835"
       sodipodi:rx="6.7842159"
       sodipodi:cy="255.02618"
       sodipodi:cx="23.405127"
       id="path10419"
       style="fill:#ffffff;stroke:#000000;stroke-width:0.79375;stroke-linecap:round;stroke-linejoin:miter;stroke-miterlimit:4;stroke-dasharray:none;stroke-dashoffset:0;stroke-opacity:1"
       sodipodi:type="arc" />
    <path
       sodipodi:arc-type="arc"
       d="m 18.846701,254.89482 a 4.7192297,1.6184902 0 0 1 1.524963,-1.65873 4.7192297,1.6184902 0 0 1 5.027895,-0.22702 4.7192297,1.6184902 0 0 1 2.724797,1.46685"
       sodipodi:ry="1.6184902"
       sodipodi:rx="4.7192297"
       sodipodi:cy="254.47592"
       sodipodi:cx="23.405127"
       id="path10421"
       style="fill:none;stroke:#000000;stroke-width:0.79375;stroke-linecap:round;stroke-linejoin:miter;stroke-miterlimit:4;stroke-dasharray:none;stroke-dashoffset:0;stroke-opacity:1"
       sodipodi:type="arc"
       sodipodi:start="2.8797933"
       sodipodi:end="6.2831853"
       sodipodi:open="true" />
    <path
       sodipodi:nodetypes="csccsc"
       inkscape:connector-curvature="0"
       id="path10423"
       d="m 28.12436,254.47594 c 0,0.89387 -2.112873,1.61848 -4.71923,1.61848 -2.606361,0 -4.719231,-0.72461 -4.719231,-1.61848 l -2.064985,0.55023 c 0,1.43002 3.037395,2.58929 6.784216,2.58929 3.746817,0 6.784216,-1.15927 6.784216,-2.58929"
       style="fill:#ffffff;stroke:none;stroke-width:0.443103;stroke-miterlimit:4;stroke-dasharray:none" />
    <path
       sodipodi:arc-type="arc"
       sodipodi:open="true"
       sodipodi:end="3.1415927"
       sodipodi:start="0"
       sodipodi:type="arc"
       style="fill:none;stroke:#000000;stroke-width:0.79375;stroke-linecap:round;stroke-linejoin:miter;stroke-miterlimit:4;stroke-dasharray:none;stroke-dashoffset:0;stroke-opacity:1"
       id="path10425"
       sodipodi:cx="23.405127"
       sodipodi:cy="254.47592"
       sodipodi:rx="4.7192297"
       sodipodi:ry="1.6184902"
       d="m 28.124356,254.47592 a 4.7192297,1.6184902 0 0 1 -2.359615,1.40166 4.7192297,1.6184902 0 0 1 -4.719229,0 4.7192297,1.6184902 0 0 1 -2.359615,-1.40166" />
    <path
       sodipodi:arc-type="arc"
       sodipodi:open="true"
       sodipodi:end="3.1415927"
       sodipodi:start="0"
       sodipodi:type="arc"
       style="fill:none;stroke:#000000;stroke-width:0.79375;stroke-linecap:round;stroke-linejoin:miter;stroke-miterlimit:4;stroke-dasharray:none;stroke-dashoffset:0;stroke-opacity:1"
       id="path10427"
       sodipodi:cx="23.405127"
       sodipodi:cy="255.02618"
       sodipodi:rx="6.7842159"
       sodipodi:ry="2.5892835"
       d="m 30.189342,255.02618 a 6.7842159,2.5892835 0 0 1 -3.392108,2.24239 6.7842159,2.5892835 0 0 1 -6.784216,0 6.7842159,2.5892835 0 0 1 -3.392107,-2.24239" />
    <ellipse
       ry="2.5283716"
       rx="6.2923279"
       cy="298.72437"
       cx="23.405134"
       style="fill:none;stroke:#000000;stroke-width:0.79375;stroke-linecap:round;stroke-linejoin:round;stroke-miterlimit:4;stroke-dasharray:none;stroke-dashoffset:0;stroke-opacity:1"
       id="ellipse10429" />
  </g>
</svg>
