<?xml version="1.0" encoding="UTF-8" standalone="no"?>
<svg
   xmlns:dc="http://purl.org/dc/elements/1.1/"
   xmlns:cc="http://creativecommons.org/ns#"
   xmlns:rdf="http://www.w3.org/1999/02/22-rdf-syntax-ns#"
   xmlns:svg="http://www.w3.org/2000/svg"
   xmlns="http://www.w3.org/2000/svg"
   xmlns:sodipodi="http://sodipodi.sourceforge.net/DTD/sodipodi-0.dtd"
   xmlns:inkscape="http://www.inkscape.org/namespaces/inkscape"
   inkscape:export-ydpi="536.07471"
   inkscape:export-xdpi="536.07471"
   inkscape:export-filename="C:\Users\Masaki\Pictures\実験器具\三方コック.png"
   sodipodi:docname="VacuumAdapter.svg"
   inkscape:version="1.0 (4035a4fb49, 2020-05-01)"
   version="1.1"
   id="svg2"
   height="106.7992"
   width="77.480072">
  <title
     id="title843">VacuumAdapter_中管コック付減圧直管</title>
  <defs
     id="defs4" />
  <sodipodi:namedview
     fit-margin-bottom="5"
     fit-margin-right="5"
     fit-margin-left="5"
     fit-margin-top="5"
     inkscape:document-rotation="0"
     inkscape:window-maximized="1"
     inkscape:window-y="-8"
     inkscape:window-x="-8"
     inkscape:window-height="1027"
     inkscape:window-width="1920"
     showgrid="false"
     inkscape:current-layer="layer1"
     inkscape:document-units="px"
     inkscape:cy="71.495966"
     inkscape:cx="17.876383"
     inkscape:zoom="2.8284271"
     inkscape:pageshadow="2"
     inkscape:pageopacity="0.0"
     borderopacity="1.0"
     bordercolor="#666666"
     pagecolor="#ffffff"
     id="base" />
  <metadata
     id="metadata7">
    <rdf:RDF>
      <cc:Work
         rdf:about="">
        <dc:format>image/svg+xml</dc:format>
        <dc:type
           rdf:resource="http://purl.org/dc/dcmitype/StillImage" />
        <dc:title>VacuumAdapter_中管コック付減圧直管</dc:title>
        <cc:license
           rdf:resource="http://creativecommons.org/licenses/by/4.0/" />
        <dc:creator>
          <cc:Agent>
            <dc:title>KYU</dc:title>
          </cc:Agent>
        </dc:creator>
      </cc:Work>
      <cc:License
         rdf:about="http://creativecommons.org/licenses/by/4.0/">
        <cc:permits
           rdf:resource="http://creativecommons.org/ns#Reproduction" />
        <cc:permits
           rdf:resource="http://creativecommons.org/ns#Distribution" />
        <cc:requires
           rdf:resource="http://creativecommons.org/ns#Notice" />
        <cc:requires
           rdf:resource="http://creativecommons.org/ns#Attribution" />
        <cc:permits
           rdf:resource="http://creativecommons.org/ns#DerivativeWorks" />
      </cc:License>
    </rdf:RDF>
  </metadata>
  <g
     transform="translate(-72.263372,-888.44981)"
     id="layer1"
     inkscape:groupmode="layer"
     inkscape:label="レイヤー 1">
    <path
       sodipodi:nodetypes="czc"
       inkscape:connector-curvature="0"
       id="path3706-7-9"
       d="m 79.150175,962.54048 c 0,0 2.085875,2.56043 8.613575,2.56024 6.5277,-1.6e-4 8.613425,-2.56074 8.613425,-2.56074"
       style="display:inline;fill:none;stroke:#000000;stroke-width:0.3;stroke-linecap:butt;stroke-linejoin:miter;stroke-miterlimit:4;stroke-dasharray:none;stroke-opacity:1" />
    <g
       transform="translate(-129.73588,-134.02919)"
       id="g4170">
      <ellipse
         style="fill:none;stroke:#000000;stroke-width:0.978729;stroke-linecap:butt;stroke-linejoin:miter;stroke-miterlimit:4;stroke-dasharray:none;stroke-dashoffset:0;stroke-opacity:1"
         id="path3708-8"
         cx="217.49925"
         cy="1046.639"
         rx="10.010635"
         ry="3.7355728"
         inkscape:export-xdpi="230.39999"
         inkscape:export-ydpi="230.39999" />
      <ellipse
         id="path3712"
         style="fill:#ffffff;stroke:#000000;stroke-width:0.978729;stroke-linecap:butt;stroke-linejoin:miter;stroke-miterlimit:4;stroke-dasharray:none;stroke-dashoffset:0;stroke-opacity:1"
         cx="217.49925"
         cy="1044.639"
         rx="10.010635"
         ry="3.7355728"
         inkscape:export-xdpi="230.39999"
         inkscape:export-ydpi="230.39999" />
    </g>
    <g
       transform="rotate(-45,127.37648,945.30584)"
       id="g4215">
      <g
         transform="translate(-1.1607143,0.625)"
         id="g4222">
        <path
           sodipodi:nodetypes="zcccczcccccczccccz"
           inkscape:connector-curvature="0"
           id="path4213"
           d="m 113.41615,925.48728 c 4.52631,0.31021 18,10e-6 18,10e-6 l -3.1e-4,-10.39323 -18.00053,4.8e-4 15.55618,-14.14166 c 0,0 -3.25824,-0.0726 -7.95669,-4.77103 -4.69845,-4.69845 -4.77123,-7.95689 -4.77123,-7.95689 l -14.14204,15.55645 -5.599261,5.59891 c -1.512303,0.64352 -10.645188,11.80729 -10.645188,11.80729 l -3.663669,1.81825 -16.880612,18.47472 c 0,0 0.980729,3.80888 3.788014,6.61602 2.807355,2.80693 6.616992,3.788 6.616992,3.788 l 18.473334,-16.88172 1.818325,-3.66359 c 0,0 7.717195,-5.86564 8.271335,-7.11009 0,0 4.60904,0.94787 9.13535,1.25808 z"
           style="fill:none;stroke:#000000;stroke-width:1;stroke-linecap:round;stroke-linejoin:miter;stroke-miterlimit:4;stroke-dasharray:none;stroke-opacity:1" />
        <path
           style="fill:none;stroke:#000000;stroke-width:1;stroke-linecap:round;stroke-linejoin:miter;stroke-miterlimit:4;stroke-dasharray:none;stroke-opacity:1"
           d="m 148.97507,925.48728 2,10e-6 c 0,0 0.73586,0.16184 1.63654,-0.56513 0.90068,-0.72698 1.70549,-0.81294 1.70549,-0.81294 l 8.53424,-0.009 1.42992,1.28467 3.6294,-1.32181 1.61295,1.32166 3.44639,-1.35881 c 0,0 0.44632,-1.41032 0.44616,-3.73592 -1.7e-4,-2.32559 -0.44668,-3.73589 -0.44668,-3.73589 l -3.44618,-1.48457 -1.61302,1.38457 -3.62933,-1.38442 -1.42984,1.28442 -8.53424,0.12523 c 0,0 -0.55765,0.0505 -1.70553,-0.82026 -1.14788,-0.87073 -1.63658,-0.56503 -1.63658,-0.56503 l -2,-10e-6"
           id="path5274"
           inkscape:connector-curvature="0"
           sodipodi:nodetypes="cczcccccczcccccczcc" />
        <circle
           transform="rotate(-65.52406)"
           id="path2984"
           style="fill:#ffffff;stroke:#000000;stroke-width:1;stroke-linecap:butt;stroke-linejoin:miter;stroke-miterlimit:4;stroke-dasharray:none;stroke-dashoffset:0;stroke-opacity:1"
           cx="-780.30566"
           cy="507.26083"
           r="11.611104" />
        <circle
           style="fill:#ffffff;stroke:#000000;stroke-width:1;stroke-linecap:butt;stroke-linejoin:miter;stroke-miterlimit:4;stroke-dasharray:none;stroke-dashoffset:0;stroke-opacity:1"
           id="path3702"
           transform="rotate(-65.524062)"
           cx="-780.30591"
           cy="507.26028"
           r="9.1248627" />
        <path
           sodipodi:nodetypes="zzzzz"
           inkscape:connector-curvature="0"
           id="path3704"
           d="m 123.07196,913.14907 c -1.33497,2.93263 8.85671,7.78981 14.14776,10.19839 5.29102,2.40858 15.64692,6.90505 16.98191,3.97243 1.33498,-2.93258 -8.85673,-7.78978 -14.14775,-10.19838 -5.29103,-2.40856 -15.64695,-6.90501 -16.98192,-3.97244 z"
           style="fill:#ffffff;stroke:#000000;stroke-width:1;stroke-linecap:butt;stroke-linejoin:miter;stroke-miterlimit:4;stroke-dasharray:none;stroke-opacity:1" />
      </g>
    </g>
  </g>
</svg>
