<?xml version="1.0" encoding="UTF-8" standalone="no"?>
<svg
   xmlns:dc="http://purl.org/dc/elements/1.1/"
   xmlns:cc="http://creativecommons.org/ns#"
   xmlns:rdf="http://www.w3.org/1999/02/22-rdf-syntax-ns#"
   xmlns:svg="http://www.w3.org/2000/svg"
   xmlns="http://www.w3.org/2000/svg"
   xmlns:sodipodi="http://sodipodi.sourceforge.net/DTD/sodipodi-0.dtd"
   xmlns:inkscape="http://www.inkscape.org/namespaces/inkscape"
   inkscape:version="1.0 (4035a4fb49, 2020-05-01)"
   sodipodi:docname="DimrothCondenser.svg"
   id="svg8"
   version="1.1"
   viewBox="0 0 107.96106 18.737148"
   height="70.817558"
   width="408.04175">
  <defs
     id="defs2" />
  <sodipodi:namedview
     fit-margin-right="5"
     fit-margin-bottom="5"
     fit-margin-left="5"
     fit-margin-top="5"
     inkscape:document-rotation="0"
     inkscape:window-maximized="1"
     inkscape:window-y="-8"
     inkscape:window-x="-8"
     inkscape:window-height="1027"
     inkscape:window-width="1920"
     units="px"
     showgrid="false"
     inkscape:current-layer="layer1"
     inkscape:document-units="px"
     inkscape:cy="-16.693318"
     inkscape:cx="162.36233"
     inkscape:zoom="2.0856809"
     inkscape:pageshadow="2"
     inkscape:pageopacity="0.0"
     borderopacity="1.0"
     bordercolor="#666666"
     pagecolor="#ffffff"
     id="base" />
  <metadata
     id="metadata5">
    <rdf:RDF>
      <cc:Work
         rdf:about="">
        <dc:format>image/svg+xml</dc:format>
        <dc:type
           rdf:resource="http://purl.org/dc/dcmitype/StillImage" />
        <dc:title></dc:title>
        <cc:license
           rdf:resource="http://creativecommons.org/licenses/by/4.0/" />
        <dc:creator>
          <cc:Agent>
            <dc:title>KYU</dc:title>
          </cc:Agent>
        </dc:creator>
      </cc:Work>
      <cc:License
         rdf:about="http://creativecommons.org/licenses/by/4.0/">
        <cc:permits
           rdf:resource="http://creativecommons.org/ns#Reproduction" />
        <cc:permits
           rdf:resource="http://creativecommons.org/ns#Distribution" />
        <cc:requires
           rdf:resource="http://creativecommons.org/ns#Notice" />
        <cc:requires
           rdf:resource="http://creativecommons.org/ns#Attribution" />
        <cc:permits
           rdf:resource="http://creativecommons.org/ns#DerivativeWorks" />
      </cc:License>
    </rdf:RDF>
  </metadata>
  <g
     transform="translate(-34.660981,-414.29125)"
     id="layer1"
     inkscape:groupmode="layer"
     inkscape:label="レイヤー 1">
    <path
       sodipodi:nodetypes="zzzzz"
       inkscape:connector-curvature="0"
       id="path3092"
       d="m 111.29535,418.89712 c 0.16016,0.20403 -0.92476,5.92789 -1.36976,6.37031 -0.44499,0.44243 -1.13332,-0.26468 -1.23612,-0.43431 -0.1028,-0.16963 1.04011,-6.09888 1.36976,-6.45384 0.32965,-0.35496 1.07595,0.3138 1.23612,0.51784 z"
       style="display:inline;fill:#ffffff;stroke:#000000;stroke-width:0.264583px;stroke-linecap:butt;stroke-linejoin:miter;stroke-opacity:1" />
    <path
       style="display:inline;fill:#ffffff;stroke:#000000;stroke-width:0.264583px;stroke-linecap:butt;stroke-linejoin:miter;stroke-opacity:1"
       d="m 108.12035,418.89712 c 0.16016,0.20403 -0.92476,5.92789 -1.36976,6.37031 -0.44499,0.44243 -1.13332,-0.26468 -1.23612,-0.43431 -0.1028,-0.16963 1.04011,-6.09888 1.36976,-6.45384 0.32965,-0.35496 1.07595,0.3138 1.23612,0.51784 z"
       id="path3094"
       inkscape:connector-curvature="0"
       sodipodi:nodetypes="zzzzz" />
    <path
       style="display:inline;fill:#ffffff;stroke:#000000;stroke-width:0.264583px;stroke-linecap:butt;stroke-linejoin:miter;stroke-opacity:1"
       d="m 104.94535,418.89712 c 0.16016,0.20403 -0.92476,5.92789 -1.36976,6.37031 -0.44499,0.44243 -1.13332,-0.26468 -1.23612,-0.43431 -0.1028,-0.16963 1.04011,-6.09888 1.36976,-6.45384 0.32965,-0.35496 1.07595,0.3138 1.23612,0.51784 z"
       id="path3080"
       inkscape:connector-curvature="0"
       sodipodi:nodetypes="zzzzz" />
    <path
       sodipodi:nodetypes="zzzzz"
       inkscape:connector-curvature="0"
       id="path3082"
       d="m 101.77035,418.89712 c 0.16016,0.20403 -0.92476,5.92789 -1.36976,6.37031 -0.444986,0.44243 -1.133316,-0.26468 -1.236116,-0.43431 -0.1028,-0.16963 1.040106,-6.09888 1.369756,-6.45384 0.32965,-0.35496 1.07595,0.3138 1.23612,0.51784 z"
       style="display:inline;fill:#ffffff;stroke:#000000;stroke-width:0.264583px;stroke-linecap:butt;stroke-linejoin:miter;stroke-opacity:1" />
    <path
       style="display:inline;fill:#ffffff;stroke:#000000;stroke-width:0.264583px;stroke-linecap:butt;stroke-linejoin:miter;stroke-opacity:1"
       d="m 98.595354,418.89712 c 0.16016,0.20403 -0.92476,5.92789 -1.36976,6.37031 -0.44499,0.44243 -1.13332,-0.26468 -1.23612,-0.43431 -0.1028,-0.16963 1.04011,-6.09888 1.36976,-6.45384 0.32964,-0.35496 1.07595,0.3138 1.23612,0.51784 z"
       id="path3084"
       inkscape:connector-curvature="0"
       sodipodi:nodetypes="zzzzz" />
    <path
       sodipodi:nodetypes="zzzzz"
       inkscape:connector-curvature="0"
       id="path3086"
       d="m 95.420354,418.89712 c 0.16016,0.20403 -0.92476,5.92789 -1.36976,6.37031 -0.44499,0.44243 -1.13332,-0.26468 -1.23612,-0.43431 -0.1028,-0.16963 1.04011,-6.09888 1.36975,-6.45384 0.32965,-0.35496 1.07596,0.3138 1.23613,0.51784 z"
       style="display:inline;fill:#ffffff;stroke:#000000;stroke-width:0.264583px;stroke-linecap:butt;stroke-linejoin:miter;stroke-opacity:1" />
    <path
       style="display:inline;fill:#ffffff;stroke:#000000;stroke-width:0.264583px;stroke-linecap:butt;stroke-linejoin:miter;stroke-opacity:1"
       d="m 92.245344,418.89712 c 0.16017,0.20403 -0.92475,5.92789 -1.36975,6.37031 -0.44499,0.44243 -1.13332,-0.26468 -1.23612,-0.43431 -0.1028,-0.16963 1.0401,-6.09888 1.36975,-6.45384 0.32965,-0.35496 1.07596,0.3138 1.23612,0.51784 z"
       id="path3088"
       inkscape:connector-curvature="0"
       sodipodi:nodetypes="zzzzz" />
    <path
       sodipodi:nodetypes="zzzzz"
       inkscape:connector-curvature="0"
       id="path3090"
       d="m 89.070344,418.89712 c 0.16017,0.20403 -0.92475,5.92789 -1.36975,6.37031 -0.44499,0.44243 -1.13332,-0.26468 -1.23612,-0.43431 -0.1028,-0.16963 1.0401,-6.09888 1.36975,-6.45384 0.32965,-0.35496 1.07596,0.3138 1.23612,0.51784 z"
       style="display:inline;fill:#ffffff;stroke:#000000;stroke-width:0.264583px;stroke-linecap:butt;stroke-linejoin:miter;stroke-opacity:1" />
    <path
       sodipodi:nodetypes="zzzzz"
       inkscape:connector-curvature="0"
       id="path3074"
       d="m 85.895344,418.89712 c 0.16017,0.20403 -0.92475,5.92789 -1.36975,6.37031 -0.44499,0.44243 -1.13332,-0.26468 -1.23612,-0.43431 -0.1028,-0.16963 1.0401,-6.09888 1.36975,-6.45384 0.32965,-0.35496 1.07596,0.3138 1.23612,0.51784 z"
       style="display:inline;fill:#ffffff;stroke:#000000;stroke-width:0.264583px;stroke-linecap:butt;stroke-linejoin:miter;stroke-opacity:1" />
    <path
       style="display:inline;fill:#ffffff;stroke:#000000;stroke-width:0.264583px;stroke-linecap:butt;stroke-linejoin:miter;stroke-opacity:1"
       d="m 82.720344,418.89712 c 0.16017,0.20403 -0.92475,5.92789 -1.36975,6.37031 -0.44499,0.44243 -1.13332,-0.26468 -1.23612,-0.43431 -0.1028,-0.16963 1.0401,-6.09888 1.36975,-6.45384 0.32965,-0.35496 1.07596,0.3138 1.23612,0.51784 z"
       id="path3076"
       inkscape:connector-curvature="0"
       sodipodi:nodetypes="zzzzz" />
    <path
       sodipodi:nodetypes="zzzzz"
       inkscape:connector-curvature="0"
       id="path3078"
       d="m 79.545344,418.89712 c 0.16017,0.20403 -0.92475,5.92789 -1.36975,6.37031 -0.44499,0.44243 -1.13332,-0.26468 -1.23612,-0.43431 -0.1028,-0.16963 1.0401,-6.09888 1.36975,-6.45384 0.32965,-0.35496 1.07596,0.3138 1.23612,0.51784 z"
       style="display:inline;fill:#ffffff;stroke:#000000;stroke-width:0.264583px;stroke-linecap:butt;stroke-linejoin:miter;stroke-opacity:1" />
    <path
       style="display:inline;fill:#ffffff;stroke:#000000;stroke-width:0.264583px;stroke-linecap:butt;stroke-linejoin:miter;stroke-opacity:1"
       d="m 76.370344,418.89712 c 0.16017,0.20403 -0.92475,5.92789 -1.36975,6.37031 -0.445,0.44243 -1.13332,-0.26468 -1.23612,-0.43431 -0.1028,-0.16963 1.0401,-6.09888 1.36975,-6.45384 0.32965,-0.35496 1.07596,0.3138 1.23612,0.51784 z"
       id="path3072"
       inkscape:connector-curvature="0"
       sodipodi:nodetypes="zzzzz" />
    <path
       sodipodi:nodetypes="zzzzz"
       inkscape:connector-curvature="0"
       id="path3070"
       d="m 73.195344,418.89712 c 0.16017,0.20403 -0.92475,5.92789 -1.36975,6.37031 -0.445,0.44243 -1.13333,-0.26468 -1.23612,-0.43431 -0.1028,-0.16963 1.0401,-6.09888 1.36975,-6.45384 0.32965,-0.35496 1.07596,0.3138 1.23612,0.51784 z"
       style="display:inline;fill:#ffffff;stroke:#000000;stroke-width:0.264583px;stroke-linecap:butt;stroke-linejoin:miter;stroke-opacity:1" />
    <path
       style="display:inline;fill:#ffffff;stroke:#000000;stroke-width:0.264583px;stroke-linecap:butt;stroke-linejoin:miter;stroke-opacity:1"
       d="m 70.020344,418.89712 c 0.16017,0.20403 -0.92475,5.92789 -1.36975,6.37031 -0.445,0.44243 -1.13333,-0.26468 -1.23612,-0.43431 -0.1028,-0.16963 1.0401,-6.09888 1.36975,-6.45384 0.32965,-0.35496 1.07596,0.3138 1.23612,0.51784 z"
       id="path3068"
       inkscape:connector-curvature="0"
       sodipodi:nodetypes="zzzzz" />
    <path
       style="display:inline;fill:none;stroke:#000000;stroke-width:0.264583px;stroke-linecap:butt;stroke-linejoin:miter;stroke-opacity:1"
       d="m 133.70735,420.69162 5.55618,0.26455 c 0,0 -0.59598,-0.62316 -0.59599,-2.38122 0,-1.75805 0.59599,-2.38128 0.59599,-2.38128 l -5.55625,0.26462 c 0,0 -0.40357,-0.27662 -0.60535,-0.36481 -0.20178,-0.0882 -1.13451,-0.16436 -1.13451,-0.16436 h -7.40833 c 0,0 -0.67382,0.0226 -1.05834,0.16705 -0.38451,0.14447 -1.05828,0.75899 -1.05828,0.75899 0,0 -1.24301,0.13364 -1.86452,0.13364 -0.62151,0 -1.86453,-0.13364 -1.86453,-0.13364 0,0 0.13054,-0.18101 -0.31183,-0.79384 -0.44238,-0.61283 -1.38946,-0.17167 -2.11667,0 -0.72721,0.17167 -2.11667,1.05834 -2.11667,1.05834 H 58.605744 c 0,0 -1.52535,0.0548 -2.11666,0.52916 -0.59131,0.47434 -1.05834,1.5875 -1.05834,1.5875 l -12.76545,9e-5 -0.463714,0.43458 -5.55625,0.26464 c 0,0 -0.529141,0.89606 -0.529141,1.94646 2.7e-5,1.05037 0.52922,1.94667 0.52922,1.94667 l 5.556171,0.26456 0.463714,0.43476 12.76545,-9e-5 c 0,0 0.46703,1.11317 1.05834,1.5875 0.59131,0.47433 2.11666,0.52917 2.11666,0.52917 h 55.562506 c 0,0 1.38946,0.88666 2.11667,1.05833 0.72721,0.17167 1.50433,0.72775 2.11667,0 0.61233,-0.72775 0.52916,-4.82586 0.52916,-5.82083 0,-0.99498 0.0452,-1.58741 0.0452,-1.58741 0,0 1.02425,-0.13364 1.60199,-0.13364 0.57773,0 1.86443,0.13364 1.86443,0.13364 0,0 0.67385,0.61452 1.05837,0.75899 0.38453,0.14448 1.05834,0.16705 1.05834,0.16705 h 7.40833 c 0,0 0.93276,-0.0762 1.13455,-0.16436 0.20179,-0.0882 0.60538,-0.36481 0.60538,-0.36481 z"
       id="path2982-1"
       inkscape:connector-curvature="0"
       sodipodi:nodetypes="cczcczcczczczzcczcccczcccczcczzzczczcczc" />
    <path
       style="display:inline;fill:#ffffff;stroke:#000000;stroke-width:0.264583px;stroke-linecap:butt;stroke-linejoin:miter;stroke-opacity:1"
       d="m 118.08431,423.62956 c -0.73058,-1.0936 -1.17145,-2.26851 -1.58015,-2.80925 -1.03475,-1.36904 -1.98804,-1.62821 -2.40131,-1.42206 -0.41326,0.20614 -0.55726,5.42676 -1.00226,5.86918 -0.44499,0.44243 -1.13332,-0.26468 -1.23612,-0.43431 -0.10279,-0.16963 0.81998,-6.61916 2.00452,-6.75452 1.18454,-0.13536 3.0373,1.00495 3.59857,2.09367 0.38345,0.74381 0.87793,1.59652 1.4817,2.55897 0.60377,0.96246 3.95477,1.91685 5.15067,2.81931 1.19589,0.90246 1.41874,1.35819 1.41362,2.61096 -0.005,1.25277 -3.23164,3.0857 -3.49264,3.04556 -0.26099,-0.0401 -0.64506,0.22722 -0.64506,0.22722 l -0.31537,-0.47167 c 0,0 0.23062,-0.23114 0.43664,-0.61344 0.20602,-0.38227 2.92001,-1.41632 2.95888,-2.41353 0.0389,-0.99722 -0.3322,-1.06958 -1.15774,-1.59231 -0.82554,-0.52272 -4.48337,-1.62017 -5.21395,-2.71378 z"
       id="path3096"
       inkscape:connector-curvature="0"
       sodipodi:nodetypes="zszzzzszzzzcczzzz" />
    <path
       style="display:inline;fill:none;stroke:#000000;stroke-width:0.079375;stroke-linecap:butt;stroke-linejoin:miter;stroke-miterlimit:4;stroke-dasharray:none;stroke-opacity:1"
       d="m 133.70735,416.45829 c 0,0 -0.62921,0.51256 -0.62921,2.11666 0,1.60411 0.62921,2.11667 0.62921,2.11667"
       id="path3706-7"
       inkscape:connector-curvature="0"
       sodipodi:nodetypes="czc" />
    <ellipse
       ry="0.98837042"
       rx="2.6486475"
       cy="-139.6521"
       cx="418.57495"
       style="display:inline;fill:none;stroke:#000000;stroke-width:0.258955;stroke-linecap:butt;stroke-linejoin:miter;stroke-miterlimit:4;stroke-dasharray:none;stroke-dashoffset:0;stroke-opacity:1"
       id="path3708"
       transform="rotate(90)" />
    <ellipse
       ry="0.98837042"
       rx="2.6486475"
       cy="-140.18127"
       cx="418.57495"
       transform="rotate(90)"
       id="path3712"
       style="display:inline;fill:#ffffff;stroke:#000000;stroke-width:0.258955;stroke-linecap:butt;stroke-linejoin:miter;stroke-miterlimit:4;stroke-dasharray:none;stroke-dashoffset:0;stroke-opacity:1" />
    <path
       sodipodi:nodetypes="zzzzzzcczzzzcczzzzcczzzzzzccz"
       inkscape:connector-curvature="0"
       id="path3018"
       d="m 118.45648,431.29266 c 0.261,0.0401 3.72377,-1.9109 3.61076,-3.44715 -0.113,-1.53624 -0.39538,-1.71263 -1.72588,-2.21835 -1.3305,-0.50573 -2.04904,-0.71726 -2.74365,-1.44301 -0.69461,-0.72575 -0.73886,-2.11782 -1.18495,-2.79441 -0.4461,-0.6766 -0.80255,-0.83005 -1.18618,-1.09508 -0.38362,-0.26503 -1.05833,-0.52917 -1.05833,-0.52917 H 66.014084 c 0,0 -0.5225,-0.043 -0.99309,0.31739 -0.47058,0.3604 -0.68135,1.52114 -1.36284,2.11237 -0.68149,0.59123 -1.60005,1.19639 -2.6672,1.17886 -1.06715,-0.0175 -2.01062,-0.12838 -2.01062,-1.86494 0,-1.73656 6.69972,-2.24361 6.69972,-2.24361 l -0.0272,-0.88755 c 0,0 -7.63611,0.34065 -7.65684,3.0862 -0.0207,2.74556 1.68203,2.87396 2.90504,2.90754 1.22301,0.0336 2.00868,-0.74086 3.0296,-1.02447 1.02091,-0.28361 0.86695,0.13413 1.14968,0.41865 0.28274,0.28452 0.93377,0.23289 0.93377,0.23289 h 48.154166 c 0,0 0.45743,0.0854 0.89129,-0.32871 0.43386,-0.41408 0.44799,-0.84241 0.71536,-0.87273 0.26738,-0.0303 0.40775,1.65534 1.09149,2.32286 0.68374,0.66752 2.31077,0.96968 2.89768,1.2776 0.5869,0.30793 1.33174,0.31909 1.29286,1.3163 -0.0389,0.99721 -2.91822,2.33837 -3.12424,2.72064 -0.20602,0.38229 -0.43664,0.61343 -0.43664,0.61343 l 0.31537,0.47168 c 0,0 0.38407,-0.26737 0.64506,-0.22723 z"
       style="display:inline;fill:#ffffff;stroke:#000000;stroke-width:0.264583px;stroke-linecap:butt;stroke-linejoin:miter;stroke-opacity:1" />
    <path
       style="display:inline;fill:#ffffff;stroke:#000000;stroke-width:0.264583px;stroke-linecap:butt;stroke-linejoin:miter;stroke-opacity:1"
       d="m 65.471584,418.4628 c -0.16017,0.20404 1.52074,6.06153 1.96574,6.50395 0.44499,0.44243 1.0665,0.50372 1.1693,0.33409 0.1028,-0.16963 -1.60268,-6.09888 -1.93233,-6.45384 -0.32965,-0.35496 -1.04255,-0.58823 -1.20271,-0.3842 z"
       id="path3022"
       inkscape:connector-curvature="0"
       sodipodi:nodetypes="zzzzz" />
    <path
       sodipodi:nodetypes="zzzzz"
       inkscape:connector-curvature="0"
       id="path3024"
       d="m 68.774844,418.39598 c -0.16017,0.20404 1.39248,6.12835 1.83748,6.57077 0.44499,0.44243 1.0665,0.50372 1.1693,0.33409 0.1028,-0.16963 -1.47442,-6.1657 -1.80407,-6.52066 -0.32965,-0.35495 -1.04255,-0.58823 -1.20271,-0.3842 z"
       style="display:inline;fill:#ffffff;stroke:#000000;stroke-width:0.264583px;stroke-linecap:butt;stroke-linejoin:miter;stroke-opacity:1" />
    <path
       style="display:inline;fill:#ffffff;stroke:#000000;stroke-width:0.264583px;stroke-linecap:butt;stroke-linejoin:miter;stroke-opacity:1"
       d="m 71.949844,418.39598 c -0.16017,0.20404 1.39248,6.12835 1.83748,6.57077 0.44499,0.44243 1.0665,0.50372 1.1693,0.33409 0.1028,-0.16963 -1.47442,-6.1657 -1.80407,-6.52066 -0.32965,-0.35495 -1.04255,-0.58823 -1.20271,-0.3842 z"
       id="path3026"
       inkscape:connector-curvature="0"
       sodipodi:nodetypes="zzzzz" />
    <path
       sodipodi:nodetypes="zzzzz"
       inkscape:connector-curvature="0"
       id="path3028"
       d="m 75.124844,418.39598 c -0.16016,0.20404 1.39248,6.12835 1.83748,6.57077 0.44499,0.44243 1.0665,0.50372 1.1693,0.33409 0.1028,-0.16963 -1.47442,-6.1657 -1.80407,-6.52066 -0.32965,-0.35495 -1.04255,-0.58823 -1.20271,-0.3842 z"
       style="display:inline;fill:#ffffff;stroke:#000000;stroke-width:0.264583px;stroke-linecap:butt;stroke-linejoin:miter;stroke-opacity:1" />
    <path
       style="display:inline;fill:#ffffff;stroke:#000000;stroke-width:0.264583px;stroke-linecap:butt;stroke-linejoin:miter;stroke-opacity:1"
       d="m 78.299844,418.39598 c -0.16016,0.20404 1.39248,6.12835 1.83748,6.57077 0.44499,0.44243 1.0665,0.50372 1.1693,0.33409 0.1028,-0.16963 -1.47442,-6.1657 -1.80407,-6.52066 -0.32965,-0.35495 -1.04255,-0.58823 -1.20271,-0.3842 z"
       id="path3030"
       inkscape:connector-curvature="0"
       sodipodi:nodetypes="zzzzz" />
    <path
       sodipodi:nodetypes="zzzzz"
       inkscape:connector-curvature="0"
       id="path3032"
       d="m 81.474844,418.39598 c -0.16016,0.20404 1.39248,6.12835 1.83748,6.57077 0.44499,0.44243 1.0665,0.50372 1.1693,0.33409 0.1028,-0.16963 -1.47442,-6.1657 -1.80407,-6.52066 -0.32965,-0.35495 -1.04255,-0.58823 -1.20271,-0.3842 z"
       style="display:inline;fill:#ffffff;stroke:#000000;stroke-width:0.264583px;stroke-linecap:butt;stroke-linejoin:miter;stroke-opacity:1" />
    <path
       sodipodi:nodetypes="zzzzz"
       inkscape:connector-curvature="0"
       id="path3050"
       d="m 84.649844,418.39598 c -0.16016,0.20404 1.39248,6.12835 1.83748,6.57077 0.44499,0.44243 1.0665,0.50372 1.1693,0.33409 0.1028,-0.16963 -1.47442,-6.1657 -1.80407,-6.52066 -0.32965,-0.35495 -1.04255,-0.58823 -1.20271,-0.3842 z"
       style="display:inline;fill:#ffffff;stroke:#000000;stroke-width:0.264583px;stroke-linecap:butt;stroke-linejoin:miter;stroke-opacity:1" />
    <path
       style="display:inline;fill:#ffffff;stroke:#000000;stroke-width:0.264583px;stroke-linecap:butt;stroke-linejoin:miter;stroke-opacity:1"
       d="m 87.824844,418.39598 c -0.16016,0.20404 1.39248,6.12835 1.83748,6.57077 0.44499,0.44243 1.0665,0.50372 1.1693,0.33409 0.1028,-0.16963 -1.47442,-6.1657 -1.80407,-6.52066 -0.32965,-0.35495 -1.04255,-0.58823 -1.20271,-0.3842 z"
       id="path3052"
       inkscape:connector-curvature="0"
       sodipodi:nodetypes="zzzzz" />
    <path
       sodipodi:nodetypes="zzzzz"
       inkscape:connector-curvature="0"
       id="path3054"
       d="m 90.999844,418.39598 c -0.16016,0.20404 1.39248,6.12835 1.83748,6.57077 0.44499,0.44243 1.0665,0.50372 1.1693,0.33409 0.1028,-0.16963 -1.47442,-6.1657 -1.80407,-6.52066 -0.32965,-0.35495 -1.04254,-0.58823 -1.20271,-0.3842 z"
       style="display:inline;fill:#ffffff;stroke:#000000;stroke-width:0.264583px;stroke-linecap:butt;stroke-linejoin:miter;stroke-opacity:1" />
    <path
       style="display:inline;fill:#ffffff;stroke:#000000;stroke-width:0.264583px;stroke-linecap:butt;stroke-linejoin:miter;stroke-opacity:1"
       d="m 94.174844,418.39598 c -0.16016,0.20404 1.39248,6.12835 1.83748,6.57077 0.44499,0.44243 1.06651,0.50372 1.1693,0.33409 0.1028,-0.16963 -1.47442,-6.1657 -1.80407,-6.52066 -0.32965,-0.35495 -1.04254,-0.58823 -1.20271,-0.3842 z"
       id="path3056"
       inkscape:connector-curvature="0"
       sodipodi:nodetypes="zzzzz" />
    <path
       sodipodi:nodetypes="zzzzz"
       inkscape:connector-curvature="0"
       id="path3058"
       d="m 97.349844,418.39598 c -0.16016,0.20404 1.39248,6.12835 1.83748,6.57077 0.44499,0.44243 1.066506,0.50372 1.169296,0.33409 0.1028,-0.16963 -1.474416,-6.1657 -1.804066,-6.52066 -0.32965,-0.35495 -1.04254,-0.58823 -1.20271,-0.3842 z"
       style="display:inline;fill:#ffffff;stroke:#000000;stroke-width:0.264583px;stroke-linecap:butt;stroke-linejoin:miter;stroke-opacity:1" />
    <path
       style="display:inline;fill:#ffffff;stroke:#000000;stroke-width:0.264583px;stroke-linecap:butt;stroke-linejoin:miter;stroke-opacity:1"
       d="m 100.52484,418.39598 c -0.16016,0.20404 1.39248,6.12835 1.83748,6.57077 0.44499,0.44243 1.06651,0.50372 1.1693,0.33409 0.1028,-0.16963 -1.47442,-6.1657 -1.80407,-6.52066 -0.32964,-0.35495 -1.04254,-0.58823 -1.20271,-0.3842 z"
       id="path3060"
       inkscape:connector-curvature="0"
       sodipodi:nodetypes="zzzzz" />
    <path
       sodipodi:nodetypes="zzzzz"
       inkscape:connector-curvature="0"
       id="path3062"
       d="m 103.69984,418.39598 c -0.16016,0.20404 1.39248,6.12835 1.83748,6.57077 0.44499,0.44243 1.06651,0.50372 1.1693,0.33409 0.1028,-0.16963 -1.47442,-6.1657 -1.80406,-6.52066 -0.32965,-0.35495 -1.04255,-0.58823 -1.20272,-0.3842 z"
       style="display:inline;fill:#ffffff;stroke:#000000;stroke-width:0.264583px;stroke-linecap:butt;stroke-linejoin:miter;stroke-opacity:1" />
    <path
       style="display:inline;fill:#ffffff;stroke:#000000;stroke-width:0.264583px;stroke-linecap:butt;stroke-linejoin:miter;stroke-opacity:1"
       d="m 106.87484,418.39598 c -0.16016,0.20404 1.39248,6.12835 1.83748,6.57077 0.44499,0.44243 1.06651,0.50372 1.16931,0.33409 0.10279,-0.16963 -1.47442,-6.1657 -1.80407,-6.52066 -0.32965,-0.35495 -1.04255,-0.58823 -1.20272,-0.3842 z"
       id="path3064"
       inkscape:connector-curvature="0"
       sodipodi:nodetypes="zzzzz" />
    <path
       sodipodi:nodetypes="zzzzz"
       inkscape:connector-curvature="0"
       id="path3066"
       d="m 110.04984,418.39598 c -0.16016,0.20404 1.39248,6.12835 1.83748,6.57077 0.445,0.44243 1.06651,0.50372 1.16931,0.33409 0.10279,-0.16963 -1.47442,-6.1657 -1.80407,-6.52066 -0.32965,-0.35495 -1.04255,-0.58823 -1.20272,-0.3842 z"
       style="display:inline;fill:#ffffff;stroke:#000000;stroke-width:0.264583px;stroke-linecap:butt;stroke-linejoin:miter;stroke-opacity:1" />
    <path
       style="display:inline;fill:none;stroke:#000000;stroke-width:0.079375;stroke-linecap:butt;stroke-linejoin:miter;stroke-miterlimit:4;stroke-dasharray:none;stroke-opacity:1"
       d="m 42.232714,419.76558 c 0,0 -0.629208,0.51256 -0.629208,2.11667 0,1.6041 0.629208,2.11666 0.629208,2.11666"
       id="path3706-7-9"
       inkscape:connector-curvature="0"
       sodipodi:nodetypes="czc" />
  </g>
</svg>
