<?xml version="1.0" encoding="UTF-8" standalone="no"?>
<svg
   xmlns:dc="http://purl.org/dc/elements/1.1/"
   xmlns:cc="http://creativecommons.org/ns#"
   xmlns:rdf="http://www.w3.org/1999/02/22-rdf-syntax-ns#"
   xmlns:svg="http://www.w3.org/2000/svg"
   xmlns="http://www.w3.org/2000/svg"
   xmlns:sodipodi="http://sodipodi.sourceforge.net/DTD/sodipodi-0.dtd"
   xmlns:inkscape="http://www.inkscape.org/namespaces/inkscape"
   width="92.19957"
   height="113.7906"
   viewBox="0 0 24.394471 30.107101"
   version="1.1"
   id="svg8"
   sodipodi:docname="PearShapedFlask2wayCapped.svg"
   inkscape:version="1.0 (4035a4fb49, 2020-05-01)">
  <defs
     id="defs2">
    <inkscape:path-effect
       effect="spiro"
       id="path-effect1084"
       is_visible="true"
       lpeversion="0" />
    <inkscape:path-effect
       is_visible="true"
       id="path-effect4382"
       effect="spiro"
       lpeversion="0" />
    <inkscape:path-effect
       lpeversion="0"
       effect="spiro"
       id="path-effect4350"
       is_visible="true" />
    <inkscape:path-effect
       lpeversion="0"
       is_visible="true"
       id="path-effect4354"
       effect="spiro" />
    <inkscape:path-effect
       lpeversion="0"
       effect="spiro"
       id="path-effect4378"
       is_visible="true" />
    <inkscape:path-effect
       lpeversion="0"
       is_visible="true"
       id="path-effect4267"
       effect="spiro" />
  </defs>
  <sodipodi:namedview
     id="base"
     pagecolor="#ffffff"
     bordercolor="#666666"
     borderopacity="1.0"
     inkscape:pageopacity="0.0"
     inkscape:pageshadow="2"
     inkscape:zoom="4.1713618"
     inkscape:cx="3.2836243"
     inkscape:cy="34.397199"
     inkscape:document-units="px"
     inkscape:current-layer="layer1"
     showgrid="false"
     units="px"
     inkscape:window-width="1920"
     inkscape:window-height="1027"
     inkscape:window-x="-8"
     inkscape:window-y="-8"
     inkscape:window-maximized="1"
     inkscape:document-rotation="0"
     fit-margin-top="5"
     fit-margin-left="5"
     fit-margin-bottom="5"
     fit-margin-right="5" />
  <metadata
     id="metadata5">
    <rdf:RDF>
      <cc:Work
         rdf:about="">
        <dc:format>image/svg+xml</dc:format>
        <dc:type
           rdf:resource="http://purl.org/dc/dcmitype/StillImage" />
        <dc:title></dc:title>
        <cc:license
           rdf:resource="http://creativecommons.org/licenses/by/4.0/" />
        <dc:creator>
          <cc:Agent>
            <dc:title>KYU</dc:title>
          </cc:Agent>
        </dc:creator>
      </cc:Work>
      <cc:License
         rdf:about="http://creativecommons.org/licenses/by/4.0/">
        <cc:permits
           rdf:resource="http://creativecommons.org/ns#Reproduction" />
        <cc:permits
           rdf:resource="http://creativecommons.org/ns#Distribution" />
        <cc:requires
           rdf:resource="http://creativecommons.org/ns#Notice" />
        <cc:requires
           rdf:resource="http://creativecommons.org/ns#Attribution" />
        <cc:permits
           rdf:resource="http://creativecommons.org/ns#DerivativeWorks" />
      </cc:License>
    </rdf:RDF>
  </metadata>
  <g
     inkscape:label="レイヤー 1"
     inkscape:groupmode="layer"
     id="layer1"
     transform="translate(-30.679505,-495.83862)">
    <g
       id="g4491"
       transform="matrix(0.26458336,0,0,0.26458336,1.7886981,268.94841)">
      <path
         sodipodi:nodetypes="czc"
         inkscape:connector-curvature="0"
         id="path4493"
         d="m 134.27494,892.3278 c 0,0 1.93724,2.37811 8,2.37811 6.06276,0 8,-2.37811 8,-2.37811"
         style="fill:none;stroke:#000000;stroke-width:0.3;stroke-linecap:butt;stroke-linejoin:miter;stroke-miterlimit:4;stroke-dasharray:none;stroke-opacity:1" />
      <ellipse
         ry="3.7249374"
         rx="10.480332"
         cy="53.717285"
         cx="52.275394"
         transform="matrix(0.95518302,0,0,1.0028552,92.342373,815.98881)"
         id="path4495"
         style="fill:none;stroke:#000000;stroke-width:1;stroke-linecap:butt;stroke-linejoin:miter;stroke-miterlimit:4;stroke-dasharray:none;stroke-dashoffset:0;stroke-opacity:1" />
      <ellipse
         ry="3.7249374"
         rx="10.480332"
         cy="53.717285"
         cx="52.275394"
         style="fill:#ffffff;stroke:#000000;stroke-width:1;stroke-linecap:butt;stroke-linejoin:miter;stroke-miterlimit:4;stroke-dasharray:none;stroke-dashoffset:0;stroke-opacity:1"
         id="path4497"
         transform="matrix(0.95518302,0,0,1.0028552,92.342373,813.98881)" />
      <path
         style="fill:none;stroke:#000000;stroke-width:1px;stroke-linecap:round;stroke-linejoin:miter;stroke-opacity:1"
         d="m 174.98004,916.55739 c 2.54121,-12.82389 16.18877,-34.92271 16.18877,-34.92271 0,0 -3.14189,0.86575 -8.99137,-2.28614 -5.84949,-3.15188 -6.85463,-6.25225 -6.85463,-6.25225 l -10.44017,22.83019 c -1.4463,2.24356 -5.17437,-0.98368 -7.00444,-1.78908 -1.83008,-0.80541 -7.60325,-1.8096 -7.60325,-1.8096 l 0.99985,-20.99972 c 0,0 -2.35524,2.25252 -8.99985,2.25254 -6.64461,2e-5 -9.00015,-2.25254 -9.00015,-2.25254 v 10e-6 l 1.00015,21 c 0,0 -19.4884,7.9265 -19.58103,26.57861 -0.0926,18.65211 19.5874,46.92163 27.58103,46.92163 7.99363,0 20.10146,-20.93923 23.78054,-28.14082 3.67908,-7.20159 7.72755,-16.33568 8.92455,-21.13012 z"
         id="path4499"
         inkscape:connector-curvature="0"
         sodipodi:nodetypes="cczcczcczccczzzc" />
      <path
         style="fill:none;stroke:#000000;stroke-width:0.3;stroke-linecap:butt;stroke-linejoin:miter;stroke-miterlimit:4;stroke-dasharray:none;stroke-opacity:1"
         d="m 166.49449,892.31003 c 0,0 0.57735,3.01246 5.91461,5.88837 5.33725,2.87589 8.17073,1.7013 8.17073,1.7013"
         id="path4501"
         inkscape:connector-curvature="0"
         sodipodi:nodetypes="czc" />
      <ellipse
         ry="3.7249374"
         rx="10.480332"
         cy="53.717285"
         cx="52.275394"
         style="fill:none;stroke:#000000;stroke-width:1;stroke-linecap:butt;stroke-linejoin:miter;stroke-miterlimit:4;stroke-dasharray:none;stroke-dashoffset:0;stroke-opacity:1"
         id="path4503"
         transform="matrix(0.84087997,0.45309545,-0.47570897,0.8828474,165.53905,804.96278)" />
      <ellipse
         ry="3.7249374"
         rx="10.480332"
         cy="53.717285"
         cx="52.275394"
         transform="matrix(0.84087997,0.45309545,-0.47570897,0.8828474,166.48775,803.20211)"
         id="path4505"
         style="fill:#ffffff;stroke:#000000;stroke-width:1;stroke-linecap:butt;stroke-linejoin:miter;stroke-miterlimit:4;stroke-dasharray:none;stroke-dashoffset:0;stroke-opacity:1" />
    </g>
    <path
       sodipodi:nodetypes="zzccczccczz"
       inkscape:connector-curvature="0"
       id="path4511"
       d="m 39.375773,502.39651 c 1.626629,-0.002 2.151311,-0.37274 2.453624,-0.50361 0.302311,-0.13086 0.192209,-0.31461 0.192209,-0.31461 l 0.299316,-2.24892 0.03205,-0.69482 c 0,0 -1.219142,0.62939 -2.977195,0.62939 -1.758053,1e-5 -2.977275,-0.62939 -2.977275,-0.62939 l 0.03209,0.69484 0.299355,2.24893 c 0,0 -0.08003,0.18092 0.244933,0.3146 0.324967,0.13368 0.774271,0.50509 2.400901,0.50359 z"
       style="fill:#ffffff;stroke:#000000;stroke-width:0.264583;stroke-linecap:butt;stroke-linejoin:miter;stroke-miterlimit:4;stroke-dasharray:none;stroke-opacity:1" />
    <ellipse
       ry="0.98837042"
       rx="3.0495517"
       cy="498.27939"
       cx="39.375774"
       id="path4513"
       style="fill:#ffffff;stroke:#000000;stroke-width:0.258955;stroke-linecap:butt;stroke-linejoin:miter;stroke-miterlimit:4;stroke-dasharray:none;stroke-dashoffset:0;stroke-opacity:1" />
    <path
       style="fill:#ffffff;stroke:#000000;stroke-width:0.264583;stroke-linecap:butt;stroke-linejoin:miter;stroke-miterlimit:4;stroke-dasharray:none;stroke-opacity:1"
       d="m 49.025657,503.57033 c 1.458164,0.72089 2.093093,0.62133 2.422073,0.63832 0.32898,0.017 0.311928,-0.19655 0.311928,-0.19655 l 1.26683,-1.88211 0.337254,-0.60833 c 0,0 -1.371833,0.0226 -2.947048,-0.75811 -1.575216,-0.78066 -2.388148,-1.88601 -2.388148,-1.88601 l -0.279797,0.63682 -0.73043,2.14797 c 0,0 -0.152048,0.12657 0.07976,0.39065 0.231807,0.26408 0.469456,0.79638 1.92758,1.51735 z"
       id="path4519"
       inkscape:connector-curvature="0"
       sodipodi:nodetypes="zzccczccczz" />
    <ellipse
       ry="0.98837042"
       rx="3.0495517"
       cy="425.3111"
       cx="267.54065"
       style="fill:#ffffff;stroke:#000000;stroke-width:0.258955;stroke-linecap:butt;stroke-linejoin:miter;stroke-miterlimit:4;stroke-dasharray:none;stroke-dashoffset:0;stroke-opacity:1"
       id="path4521"
       transform="rotate(26.362993)" />
    <path
       sodipodi:arc-type="arc"
       sodipodi:type="arc"
       style="fill:#ffffff;stroke:#000000;stroke-width:0.258955;stroke-linecap:butt;stroke-linejoin:miter;stroke-miterlimit:4;stroke-dasharray:none;stroke-dashoffset:0;stroke-opacity:1"
       id="path3048"
       sodipodi:cx="39.375774"
       sodipodi:cy="498.27939"
       sodipodi:rx="3.0495517"
       sodipodi:ry="0.98837042"
       d="m 42.425326,498.27939 a 3.0495517,0.98837042 0 0 1 -1.524776,0.85595 3.0495517,0.98837042 0 0 1 -3.049552,0 3.0495517,0.98837042 0 0 1 -1.524775,-0.85595"
       sodipodi:start="0"
       sodipodi:end="3.1415927"
       sodipodi:open="true" />
    <path
       sodipodi:arc-type="arc"
       transform="rotate(26.362993)"
       d="m 270.5902,425.3111 a 3.0495517,0.98837042 0 0 1 -1.52477,0.85595 3.0495517,0.98837042 0 0 1 -3.04956,0 3.0495517,0.98837042 0 0 1 -1.52477,-0.85595"
       sodipodi:ry="0.98837042"
       sodipodi:rx="3.0495517"
       sodipodi:cy="425.3111"
       sodipodi:cx="267.54065"
       id="path3055"
       style="fill:#ffffff;stroke:#000000;stroke-width:0.258955;stroke-linecap:butt;stroke-linejoin:miter;stroke-miterlimit:4;stroke-dasharray:none;stroke-dashoffset:0;stroke-opacity:1"
       sodipodi:type="arc"
       sodipodi:start="0"
       sodipodi:end="3.1415927"
       sodipodi:open="true" />
  </g>
</svg>
