<?xml version="1.0" encoding="UTF-8" standalone="no"?>
<svg
   xmlns:dc="http://purl.org/dc/elements/1.1/"
   xmlns:cc="http://creativecommons.org/ns#"
   xmlns:rdf="http://www.w3.org/1999/02/22-rdf-syntax-ns#"
   xmlns:svg="http://www.w3.org/2000/svg"
   xmlns="http://www.w3.org/2000/svg"
   xmlns:sodipodi="http://sodipodi.sourceforge.net/DTD/sodipodi-0.dtd"
   xmlns:inkscape="http://www.inkscape.org/namespaces/inkscape"
   inkscape:version="1.0 (4035a4fb49, 2020-05-01)"
   sodipodi:docname="RecoveryFlaskIllust_empty.svg"
   id="svg8"
   version="1.1"
   viewBox="0 0 16.885532 25.041704"
   height="94.645805"
   width="63.819328">
  <defs
     id="defs2" />
  <sodipodi:namedview
     fit-margin-right="5"
     fit-margin-bottom="5"
     fit-margin-left="5"
     fit-margin-top="5"
     inkscape:document-rotation="0"
     inkscape:window-maximized="1"
     inkscape:window-y="-8"
     inkscape:window-x="-8"
     inkscape:window-height="1027"
     inkscape:window-width="1920"
     units="px"
     showgrid="false"
     inkscape:current-layer="layer1"
     inkscape:document-units="px"
     inkscape:cy="10.090356"
     inkscape:cx="-101.7519"
     inkscape:zoom="2.0856809"
     inkscape:pageshadow="2"
     inkscape:pageopacity="0.0"
     borderopacity="1.0"
     bordercolor="#666666"
     pagecolor="#ffffff"
     id="base" />
  <metadata
     id="metadata5">
    <rdf:RDF>
      <cc:Work
         rdf:about="">
        <dc:format>image/svg+xml</dc:format>
        <dc:type
           rdf:resource="http://purl.org/dc/dcmitype/StillImage" />
        <dc:title></dc:title>
        <cc:license
           rdf:resource="http://creativecommons.org/licenses/by/4.0/" />
        <dc:creator>
          <cc:Agent>
            <dc:title>KYU</dc:title>
          </cc:Agent>
        </dc:creator>
      </cc:Work>
      <cc:License
         rdf:about="http://creativecommons.org/licenses/by/4.0/">
        <cc:permits
           rdf:resource="http://creativecommons.org/ns#Reproduction" />
        <cc:permits
           rdf:resource="http://creativecommons.org/ns#Distribution" />
        <cc:requires
           rdf:resource="http://creativecommons.org/ns#Notice" />
        <cc:requires
           rdf:resource="http://creativecommons.org/ns#Attribution" />
        <cc:permits
           rdf:resource="http://creativecommons.org/ns#DerivativeWorks" />
      </cc:License>
    </rdf:RDF>
  </metadata>
  <g
     transform="translate(-104.54121,-366.61049)"
     id="layer1"
     inkscape:groupmode="layer"
     inkscape:label="レイヤー 1">
    <path
       sodipodi:nodetypes="ssscscczzzccscssss"
       inkscape:connector-curvature="0"
       id="path978"
       d="m 110.74022,367.93341 c -0.33103,0 -0.59907,0.38563 -0.59907,0.71667 v 0.28366 c 0,0.23419 0.13508,0.43567 0.33033,0.53377 -0.003,0.0388 -0.006,0.078 -0.006,0.11756 v 5.63806 c -0.0886,0.16698 -0.17499,0.34086 -0.26875,0.51321 0,0 -4.6469,5.99459 -4.31571,8.76408 0.3312,2.7695 2.11647,5.82886 7.1114,5.82886 4.99494,0 7.1114,-3.11987 7.1114,-5.82886 0,-2.70898 -4.3157,-8.76408 -4.3157,-8.76408 -0.0938,-0.17235 -0.18011,-0.34623 -0.26875,-0.51321 v -5.63806 c 0,-0.0396 -0.003,-0.0788 -0.006,-0.11756 0.19525,-0.0981 0.33033,-0.29958 0.33033,-0.53377 v -0.28366 c 0,-0.33104 -0.26616,-0.71667 -0.59721,-0.71667 z"
       style="fill:#000000;fill-opacity:1;stroke-width:6.82625;stroke-miterlimit:4" />
    <g
       transform="matrix(0.05972109,0,0,0.05972109,47.544957,329.10461)"
       style="fill:#ffffff;stroke-width:7.21763"
       id="g986">
      <path
         sodipodi:nodetypes="ssszzzss"
         inkscape:connector-curvature="0"
         id="path980"
         d="m 1080.2639,768.79688 h 31.3074 c 12.4557,0 16.5312,11.60733 22.4834,22.61113 0,0 64.0465,72.72595 70.7014,130.706 6.6549,57.98005 -50.0288,91.17599 -108.8386,91.17599 -58.8098,0 -108.83843,-42.20813 -108.83843,-91.17599 0,-48.96786 70.70143,-130.706 70.70143,-130.706 5.9522,-11.00381 10.0276,-22.61113 22.4834,-22.61113 z"
         style="fill:#ffffff;stroke-width:186.215;stroke-miterlimit:4" />
      <rect
         style="fill:#ffffff;stroke-width:186.215;stroke-miterlimit:4;stroke-dasharray:none"
         id="rect982"
         width="64.230453"
         height="117.7036"
         x="1063.7814"
         y="670.49133"
         ry="0" />
      <rect
         transform="rotate(-90)"
         ry="4.3000188"
         y="1058.1317"
         x="-671.95728"
         height="75.529411"
         width="13.263481"
         id="rect984"
         style="fill:#ffffff;stroke-width:186.215;stroke-miterlimit:4;stroke-dasharray:none" />
    </g>
    <rect
       ry="0.27639753"
       y="369.29184"
       x="113.91566"
       height="6.0157108"
       width="0.55279505"
       id="rect988"
       style="fill:#000000;fill-opacity:1;stroke:none;stroke-width:0.264583" />
  </g>
</svg>
