<?xml version="1.0" encoding="UTF-8" standalone="no"?>
<svg
   xmlns:dc="http://purl.org/dc/elements/1.1/"
   xmlns:cc="http://creativecommons.org/ns#"
   xmlns:rdf="http://www.w3.org/1999/02/22-rdf-syntax-ns#"
   xmlns:svg="http://www.w3.org/2000/svg"
   xmlns="http://www.w3.org/2000/svg"
   xmlns:sodipodi="http://sodipodi.sourceforge.net/DTD/sodipodi-0.dtd"
   xmlns:inkscape="http://www.inkscape.org/namespaces/inkscape"
   inkscape:version="1.0 (4035a4fb49, 2020-05-01)"
   sodipodi:docname="SchlenkCock3way.svg"
   id="svg8"
   version="1.1"
   viewBox="0 0 16.261322 28.492181"
   height="107.68698"
   width="61.460114">
  <defs
     id="defs2" />
  <sodipodi:namedview
     fit-margin-right="5"
     fit-margin-bottom="5"
     fit-margin-left="5"
     fit-margin-top="5"
     inkscape:document-rotation="0"
     inkscape:window-maximized="1"
     inkscape:window-y="-8"
     inkscape:window-x="-8"
     inkscape:window-height="1027"
     inkscape:window-width="1920"
     units="px"
     showgrid="false"
     inkscape:current-layer="layer1"
     inkscape:document-units="px"
     inkscape:cy="50.54231"
     inkscape:cx="29.869813"
     inkscape:zoom="5.8991964"
     inkscape:pageshadow="2"
     inkscape:pageopacity="0.0"
     borderopacity="1.0"
     bordercolor="#666666"
     pagecolor="#ffffff"
     id="base" />
  <metadata
     id="metadata5">
    <rdf:RDF>
      <cc:Work
         rdf:about="">
        <dc:format>image/svg+xml</dc:format>
        <dc:type
           rdf:resource="http://purl.org/dc/dcmitype/StillImage" />
        <dc:title></dc:title>
        <cc:license
           rdf:resource="http://creativecommons.org/licenses/by/4.0/" />
        <dc:creator>
          <cc:Agent>
            <dc:title>KYU</dc:title>
          </cc:Agent>
        </dc:creator>
      </cc:Work>
      <cc:License
         rdf:about="http://creativecommons.org/licenses/by/4.0/">
        <cc:permits
           rdf:resource="http://creativecommons.org/ns#Reproduction" />
        <cc:permits
           rdf:resource="http://creativecommons.org/ns#Distribution" />
        <cc:requires
           rdf:resource="http://creativecommons.org/ns#Notice" />
        <cc:requires
           rdf:resource="http://creativecommons.org/ns#Attribution" />
        <cc:permits
           rdf:resource="http://creativecommons.org/ns#DerivativeWorks" />
      </cc:License>
    </rdf:RDF>
  </metadata>
  <g
     transform="translate(-6.3310436,-273.73838)"
     id="layer1"
     inkscape:groupmode="layer"
     inkscape:label="レイヤー 1">
    <g
       id="g4175"
       transform="matrix(0.26458251,6.6240819e-4,-6.6240819e-4,0.26458251,-10.736832,38.841049)">
      <path
         style="fill:none;stroke:#000000;stroke-width:1;stroke-linecap:round;stroke-linejoin:miter;stroke-miterlimit:4;stroke-dasharray:none;stroke-opacity:1"
         d="m 98.365094,933.56409 1.999996,-0.005 c 0,0 0.73626,0.16 1.63512,-0.56923 0.89885,-0.72923 1.70345,-0.8172 1.70345,-0.8172 l 8.53419,-0.03 1.43313,1.28109 3.62608,-1.3309 1.61625,1.31762 3.44298,-1.36743 c 0,0 0.44279,-1.41144 0.43681,-3.73703 -0.006,-2.32558 -0.45604,-3.73476 -0.45604,-3.73476 l -3.44988,-1.47594 -1.60955,1.38861 -3.63278,-1.37533 -1.42662,1.28799 -8.5339,0.1466 c 0,0 -0.55753,0.0519 -1.70758,-0.81599 -1.15006,-0.86785 -1.63799,-0.56093 -1.63799,-0.56093 l -1.999993,0.005"
         id="path5274-2"
         inkscape:connector-curvature="0"
         sodipodi:nodetypes="cczcccccczcccccczcc" />
      <circle
         transform="rotate(-65.667506)"
         id="path2984-2"
         style="fill:#ffffff;stroke:#000000;stroke-width:1;stroke-linecap:butt;stroke-linejoin:miter;stroke-miterlimit:4;stroke-dasharray:none;stroke-dashoffset:0;stroke-opacity:1"
         cx="-809.81488"
         cy="462.51852"
         r="11.611104" />
      <circle
         style="fill:#ffffff;stroke:#000000;stroke-width:1;stroke-linecap:butt;stroke-linejoin:miter;stroke-miterlimit:4;stroke-dasharray:none;stroke-dashoffset:0;stroke-opacity:1"
         id="path3702-0"
         transform="rotate(-65.667508)"
         cx="-809.81512"
         cy="462.51804"
         r="9.1248627" />
      <path
         sodipodi:nodetypes="zzzzz"
         inkscape:connector-curvature="0"
         id="path3704-0"
         d="m 105.11535,928.31175 c -0.005,-3.22218 -11.29328,-3.40355 -17.106744,-3.3949 -5.813433,0.009 -17.101332,0.22359 -17.096555,3.44577 0.0052,3.22215 11.293293,3.40353 17.106739,3.39491 5.813442,-0.009 17.10136,-0.22364 17.09656,-3.44578 z"
         style="fill:#ffffff;stroke:#000000;stroke-width:1;stroke-linecap:butt;stroke-linejoin:miter;stroke-miterlimit:4;stroke-dasharray:none;stroke-opacity:1" />
      <path
         sodipodi:nodetypes="cczccczccczcc"
         inkscape:connector-curvature="0"
         id="path2982-1-1"
         d="m 81.755496,939.03383 0.0051,1.99999 c 0,0 -1.384421,0.47915 -1.994927,2.00506 -0.610507,1.52591 0.861473,15.87418 0.861473,15.87418 l -1.295196,3.87961 1.189793,24.99706 c 0,0 3.391756,1.99132 7.361743,1.98126 3.969887,-0.0102 7.352409,-2.01883 7.352409,-2.01883 l 1.06284,-25.00247 -1.314495,-3.873 c 0,0 1.272681,-14.60774 0.781381,-15.87834 -0.4913,-1.2706 -2.00506,-1.99492 -2.00506,-1.99492 l -0.0051,-2"
         style="fill:none;stroke:#000000;stroke-width:1;stroke-linecap:round;stroke-linejoin:miter;stroke-miterlimit:4;stroke-dasharray:none;stroke-opacity:1" />
      <path
         sodipodi:nodetypes="czc"
         inkscape:connector-curvature="0"
         id="path3706-7-9-4"
         d="m 79.201643,962.58413 c 0,0 2.092279,2.5552 8.619958,2.53867 6.527679,-0.0165 8.606987,-2.5823 8.606987,-2.5823"
         style="display:inline;fill:none;stroke:#000000;stroke-width:0.3;stroke-linecap:butt;stroke-linejoin:miter;stroke-miterlimit:4;stroke-dasharray:none;stroke-opacity:1" />
      <path
         inkscape:transform-center-x="-26.071428"
         inkscape:transform-center-y="0.00019991411"
         sodipodi:nodetypes="cczcccccczcccccczcc"
         inkscape:connector-curvature="0"
         id="path5280-7"
         d="m 92.688376,917.51285 -0.0051,-2 c 0,0 0.160005,-0.73626 -0.569224,-1.63512 -0.729229,-0.89885 -0.817208,-1.70345 -0.817208,-1.70345 l -0.02962,-8.53419 1.281084,-1.43313 -1.330889,-3.62608 1.31761,-1.61625 -1.367426,-3.44298 c 0,0 -1.411436,-0.4428 -3.737028,-0.43681 -2.325583,0.006 -3.734757,0.45604 -3.734757,0.45604 l -1.475936,3.44988 1.388602,1.60955 -1.375323,3.63278 1.287988,1.42662 0.146598,8.5339 c 0,0 0.05191,0.55753 -0.815987,1.70758 -0.86786,1.15006 -0.560933,1.63799 -0.560933,1.63799 l 0.0051,1.99999"
         style="fill:none;stroke:#000000;stroke-width:1;stroke-linecap:round;stroke-linejoin:miter;stroke-miterlimit:4;stroke-dasharray:none;stroke-opacity:1" />
    </g>
  </g>
</svg>
